<svg width="1600" height="1200" viewBox="0 0 1600 1200" fill="none" xmlns="http://www.w3.org/2000/svg">
<g id="bomb 1" clip-path="url(#clip0)">
<g id="whole bomb">
<g id="bomb">
<path id="imagebot 85" fill-rule="evenodd" clip-rule="evenodd" d="M1131.68 263.123L1106 270.459C1105.64 270.43 1104.73 270.475 1104.18 270.459C1080.3 269.748 1056.16 272.064 1031.73 277.799C983.455 289.121 937.276 316.52 897.823 362.173C850.867 343.903 806.594 346.84 791.437 372.262L776.761 397.023C626.098 365.968 465.624 430.782 382.401 570.359C277.285 746.644 335.429 974.248 511.714 1079.38C687.999 1184.49 915.603 1127.27 1020.73 950.978C1104.02 811.29 1085.04 639.555 985.878 521.773L1000.55 497.013C1014.38 473.845 1000.2 438.02 968.453 407.132C994.092 379.982 1021.08 365.331 1050.08 358.53C1066.87 354.588 1084.96 353.841 1103.27 354.858L1130.79 367.7L1135.37 347.522L1150.96 337.433L1134.45 312.673L1154.63 286.074L1133.53 282.406L1131.72 263.148L1131.68 263.123Z" fill="black" stroke="black" stroke-width="37.2691"/>
<path id="imagebot 83" fill-rule="evenodd" clip-rule="evenodd" d="M1022.16 949.994C997.354 992.278 964.423 1029.23 925.269 1058.74C886.114 1088.24 841.509 1109.7 794.024 1121.89C746.538 1134.08 697.11 1136.75 648.588 1129.75C600.065 1122.75 553.406 1106.23 511.298 1081.12C469.191 1056.01 432.467 1022.82 403.242 983.46C374.017 944.099 352.869 899.344 341.015 851.774C329.161 804.204 326.837 754.759 334.175 706.287C341.513 657.814 358.369 611.273 383.772 569.343C408.582 527.06 441.513 490.103 480.668 460.602C519.823 431.101 564.428 409.638 611.913 397.45C659.398 385.262 708.826 382.589 757.349 389.586C805.872 396.583 852.531 413.111 894.638 438.218C936.746 463.326 973.47 496.516 1002.69 535.877C1031.92 575.239 1053.07 619.993 1064.92 667.563C1076.78 715.133 1079.1 764.579 1071.76 813.051C1064.42 861.523 1047.57 908.065 1022.16 949.994Z" fill="#302D2E" stroke="black" stroke-width="5.35937"/>
<path id="imagebot 82" fill-rule="evenodd" clip-rule="evenodd" d="M930.898 376.736C873.18 342.319 811.307 340.191 792.702 371.393L756.378 432.02C737.761 463.21 769.359 516.15 827.081 550.566C884.804 584.982 946.877 587.903 965.478 556.697L1001.8 496.07C1020.42 464.876 988.625 411.152 930.903 376.736H930.898Z" fill="#333031" stroke="black" stroke-width="18.6064"/>
<path id="imagebot 81" fill-rule="evenodd" clip-rule="evenodd" d="M798.477 361.051L765.466 416.997C762.411 417.116 759.115 416.519 756.26 416.879C737.483 419.178 722.946 426.343 715.095 438.171C694.138 469.712 729.947 523.518 795.14 558.449C852.169 589.01 912.829 595.022 941.102 574.889C926.181 579.75 906.469 579.031 885.282 574.105C885.282 573.93 884.988 573.701 885.282 573.493L921.97 502.058C911.387 499.256 900.318 495.049 889.334 490.086L856.102 560.994L814.354 541.984L850.51 467.666C804.947 433.825 782.013 388.658 798.477 361.026V361.051ZM499.337 471.959C460.293 499.538 426.04 535.645 399.976 579.346C300.321 746.502 354.965 962.587 522.117 1062.26C620.044 1120.65 734.84 1125.36 833.172 1086.21C775.387 1079.25 717.963 1060.89 664.749 1029.16C471.427 913.887 402.104 670.574 499.337 471.942V471.959Z" fill="black" fill-opacity="0.48936"/>
<path id="imagebot 80" fill-rule="evenodd" clip-rule="evenodd" d="M968.06 631.592C984.763 651.793 994.645 676.241 995.532 699.557C996.419 722.873 988.238 743.149 972.79 755.921C957.341 768.694 935.891 772.917 913.157 767.664C890.423 762.411 868.267 748.111 851.564 727.91C834.862 707.708 824.981 683.259 824.094 659.943C823.207 636.626 831.387 616.353 846.835 603.58C862.283 590.808 883.735 586.582 906.469 591.836C929.203 597.089 951.358 611.39 968.06 631.592Z" fill="white" fill-opacity="0.92021"/>
<path id="imagebot 79" fill-rule="evenodd" clip-rule="evenodd" d="M942.734 808.425C952.572 820.325 958.393 834.725 958.915 848.459C959.437 862.193 954.618 874.136 945.518 881.659C936.419 889.182 923.784 891.67 910.393 888.575C897.002 885.481 883.952 877.058 874.113 865.158C864.275 853.259 858.456 838.857 857.933 825.123C857.411 811.389 862.23 799.448 871.329 791.925C880.429 784.401 893.064 781.913 906.455 785.007C919.846 788.102 932.896 796.526 942.734 808.425Z" fill="white" fill-opacity="0.92021"/>
<path id="imagebot 78" d="M930.902 376.734C873.181 342.322 811.312 340.189 792.703 371.392L756.382 432.02C737.762 463.211 769.362 516.147 827.083 550.564C884.809 584.981 946.88 587.904 965.484 556.697L1001.8 496.069C1020.42 464.877 988.628 411.151 930.907 376.734H930.902Z" stroke="black" stroke-width="24.1646"/>
</g>
<g id="wick">
<path id="imagebot 77" fill-rule="evenodd" clip-rule="evenodd" d="M1051.07 357.497C1008.26 367.537 969.596 392.931 933.676 453.795L930.919 457.463C922.84 465.313 903.034 463.585 885.062 452.876C866.759 441.966 856.588 426.061 860.301 415.277C861.327 413.525 863.969 408.856 863.969 408.856C909.181 333.856 969.494 291.626 1032.72 276.791C1057.15 271.06 1081.29 268.744 1105.17 269.455C1105.75 269.471 1106.37 269.43 1106.73 269.463L1132.31 262.556L1134.6 281.194L1155.81 285.405L1135.32 312.012L1152.21 336.605L1135.89 346.722L1131.31 366.851L1104.2 354.132C1085.89 353.115 1067.85 353.556 1051.05 357.497H1051.07Z" fill="#CCAB7F" stroke="black" stroke-width="18.6064"/>
<path id="imagebot 76" d="M897.119 365.911C895.975 416.352 919.356 445.434 933.804 448.452" stroke="black" stroke-opacity="0.68617" stroke-width="9.31727" stroke-linecap="round"/>
<path id="imagebot 75" d="M940.62 327.762C932.948 377.626 952.362 409.498 966.299 414.362" stroke="black" stroke-opacity="0.68617" stroke-width="9.31727" stroke-linecap="round"/>
<path id="imagebot 74" d="M990.86 292.921C973.709 340.367 986.607 375.384 999.344 382.846" stroke="black" stroke-opacity="0.68617" stroke-width="9.31727" stroke-linecap="round"/>
<path id="imagebot 73" d="M1045.63 273.519C1019.9 316.913 1026.01 353.727 1037.1 363.441" stroke="black" stroke-opacity="0.68617" stroke-width="9.31727" stroke-linecap="round"/>
<path id="imagebot 72" d="M1132.68 262.123L1107.91 269.459C1107.94 269.155 1107.94 268.848 1107.91 268.544C1107.94 268.24 1107.94 267.933 1107.91 267.629C1107.94 267.325 1107.94 267.018 1107.91 266.714C1107.65 266.368 1107.34 266.06 1107 265.799C1106.74 265.452 1106.44 265.143 1106.09 264.88C1105.83 264.534 1105.53 264.226 1105.18 263.965C1104.88 263.935 1104.57 263.935 1104.27 263.965C1103.97 263.936 1103.67 263.936 1103.36 263.965C1103.06 263.935 1102.76 263.935 1102.45 263.965C1102.11 264.226 1101.8 264.534 1101.54 264.88C1101.24 264.85 1100.94 264.85 1100.63 264.88C1100.29 265.143 1099.98 265.452 1099.73 265.799C1098.64 267.008 1097.99 268.258 1096.96 269.467C1092.08 269.671 1087.24 270.125 1082.29 270.382L1085.05 277.718C1081.03 278.077 1078.35 279.67 1074.96 281.386C1061.56 288.191 1077.4 286.381 1079.55 290.56C1079.96 291.152 1068.92 294.885 1068.54 296.062C1067.37 299.619 1072.27 306.567 1071.3 309.818C1070.07 313.658 1062.26 314.863 1061.21 318.073C1060.16 321.341 1064.87 325.454 1069.47 329.077C1067.89 341.719 1069.06 351.95 1074.05 358.424C1074.31 358.77 1074.62 359.078 1074.97 359.34C1075.27 359.369 1075.57 359.369 1075.87 359.34C1076.13 359.687 1076.44 359.996 1076.78 360.258C1077.09 360.288 1077.39 360.288 1077.69 360.258C1078 360.288 1078.3 360.288 1078.6 360.258C1078.95 359.996 1079.25 359.686 1079.51 359.34C1079.81 359.369 1080.12 359.369 1080.42 359.34C1080.77 359.078 1081.07 358.77 1081.33 358.424C1081.68 358.163 1081.98 357.855 1082.24 357.51C1082.27 357.205 1082.27 356.899 1082.24 356.595C1082.27 356.29 1082.27 355.984 1082.24 355.68C1082.27 355.374 1082.27 355.066 1082.24 354.761C1082.27 354.456 1082.27 354.15 1082.24 353.846C1081.98 353.5 1081.68 353.192 1081.33 352.931C1080.16 351.415 1079.19 348.311 1078.57 344.676C1080.89 345.464 1088.19 348.336 1088.66 349.263C1089.54 350.987 1090.57 352.179 1091.42 353.85C1095.65 353.907 1099.99 353.613 1104.26 353.85L1131.77 366.688L1136.36 346.514L1151.95 336.425L1135.45 311.66L1155.61 285.066L1134.53 281.398L1132.7 262.135L1132.68 262.123Z" fill="black" fill-opacity="0.68627"/>
</g>
<g id="spark">
<path id="imagebot 9" fill-rule="evenodd" clip-rule="evenodd" d="M1050.56 533.684L1107 390.676L1041.75 434.573L1113.19 339.017L1019.33 347.676L1101.88 304.458L848.496 246.168L1077.67 255.094L1002.46 164.729L1126.41 227.896L1108.59 148.857L1158.7 213.196L1155.01 25.5643L1196.09 209.895L1233.34 129.444L1237.04 208.293L1309.52 165.274L1256.64 249.744L1423.66 205.836L1274.18 287.447L1362.02 316.699L1313.23 331.915L1397.59 390.782L1246.76 357.745L1307.49 483.255L1224.53 410.469L1204.62 616.027L1173.77 378.87L1050.56 533.684Z" fill="#AA0000" stroke="#800000" stroke-width="5.22065"/>
<g id="imagebot 8" filter="url(#filter0_f)">
<path fill-rule="evenodd" clip-rule="evenodd" d="M1372.42 231.071L1258.68 258.292C1257.01 258.692 1255.25 258.573 1253.64 257.951C1252.02 257.329 1250.62 256.233 1249.61 254.802C1248.6 253.372 1248.03 251.673 1247.97 249.922C1247.92 248.172 1248.37 246.451 1249.29 244.979L1282.94 191.22L1241.42 215.884C1240.1 216.659 1238.6 217.061 1237.07 217.047C1235.54 217.034 1234.03 216.607 1232.71 215.809C1231.38 215.011 1230.29 213.872 1229.53 212.508C1228.77 211.144 1228.38 209.604 1228.4 208.046L1229.45 152.153L1204.02 213.397C1203.31 215.101 1202.09 216.525 1200.52 217.465C1198.96 218.406 1197.14 218.814 1195.32 218.632C1193.5 218.449 1191.78 217.686 1190.4 216.45C1189.02 215.215 1188.06 213.571 1187.65 211.756L1159.79 88.0914L1167.3 212.78C1167.41 214.617 1166.95 216.436 1165.99 217.981C1165.03 219.526 1163.62 220.72 1161.94 221.394C1160.27 222.068 1158.43 222.188 1156.67 221.738C1154.91 221.288 1153.33 220.289 1152.15 218.884L1117.48 177.817L1134.47 225.023C1135.06 226.673 1135.15 228.455 1134.73 230.144C1134.32 231.833 1133.41 233.351 1132.14 234.505C1130.87 235.658 1129.28 236.396 1127.58 236.622C1125.88 236.849 1124.15 236.555 1122.61 235.777L1036.17 191.703L1084.21 249.431C1085.3 250.734 1086 252.326 1086.22 254.014C1086.44 255.702 1086.18 257.413 1085.46 258.939C1084.75 260.466 1083.61 261.743 1082.18 262.616C1080.76 263.488 1079.12 263.919 1077.45 263.855L941.302 258.563L1103.64 295.914C1105.37 296.313 1106.95 297.242 1108.15 298.574C1109.36 299.907 1110.14 301.579 1110.38 303.364C1110.63 305.149 1110.33 306.962 1109.53 308.557C1108.73 310.152 1107.47 311.452 1105.91 312.281L1062.8 334.837L1112.31 330.282C1113.98 330.129 1115.67 330.477 1117.16 331.284C1118.65 332.09 1119.89 333.32 1120.71 334.822C1121.53 336.323 1121.91 338.032 1121.8 339.738C1121.68 341.444 1121.08 343.073 1120.07 344.424L1079.61 398.534L1102.17 383.345C1103.7 382.326 1105.51 381.832 1107.35 381.936C1109.18 382.041 1110.95 382.738 1112.38 383.926C1113.81 385.114 1114.84 386.731 1115.31 388.543C1115.79 390.354 1115.68 392.265 1115.02 393.999L1080.05 482.571L1166.98 373.288C1167.99 372.018 1169.34 371.067 1170.87 370.544C1172.39 370.022 1174.04 369.948 1175.62 370.332C1177.19 370.716 1178.64 371.542 1179.79 372.715C1180.94 373.889 1181.74 375.363 1182.11 376.97L1218.91 537.547L1215.91 410.553C1215.87 408.863 1216.32 407.204 1217.18 405.775C1218.05 404.346 1219.31 403.208 1220.81 402.496C1222.31 401.785 1223.98 401.53 1225.63 401.763C1227.27 401.996 1228.82 402.706 1230.1 403.81L1281.1 448.603L1238.98 361.598C1238.24 360.085 1237.94 358.392 1238.11 356.721C1238.28 355.05 1238.93 353.47 1239.96 352.17C1241 350.87 1242.38 349.905 1243.95 349.388C1245.51 348.872 1247.2 348.826 1248.8 349.257L1390.16 386.772L1308.97 339.559C1307.48 338.707 1306.27 337.432 1305.49 335.893C1304.7 334.354 1304.37 332.619 1304.55 330.905C1304.72 329.19 1305.39 327.572 1306.47 326.252C1307.54 324.932 1308.98 323.969 1310.6 323.483L1333.41 316.381L1271.56 295.774C1269.91 295.217 1268.46 294.171 1267.39 292.773C1266.33 291.374 1265.69 289.687 1265.57 287.93C1265.46 286.172 1265.86 284.426 1266.73 282.917C1267.6 281.408 1268.9 280.205 1270.46 279.465L1372.42 231.069L1372.42 231.071Z" fill="#E44F30"/>
</g>
<g id="imagebot 7" filter="url(#filter1_f)">
<path fill-rule="evenodd" clip-rule="evenodd" d="M1316.62 250.749L1260.23 264.253C1257.39 264.927 1254.4 264.718 1251.65 263.654C1248.91 262.59 1246.53 260.72 1244.82 258.282C1243.1 255.844 1242.14 252.95 1242.05 249.972C1241.96 246.994 1242.74 244.067 1244.3 241.567L1264.45 209.42L1244.58 221.212C1242.33 222.547 1239.76 223.24 1237.14 223.221C1234.52 223.201 1231.95 222.47 1229.68 221.101C1227.42 219.733 1225.55 217.778 1224.26 215.439C1222.98 213.1 1222.33 210.461 1222.38 207.797L1222.82 184.205L1209.69 215.841C1208.49 218.75 1206.41 221.184 1203.75 222.792C1201.09 224.401 1197.98 225.101 1194.88 224.792C1191.78 224.482 1188.85 223.179 1186.5 221.07C1184.15 218.961 1182.51 216.156 1181.82 213.059L1170.39 162.379L1173.41 212.462C1173.6 215.582 1172.82 218.67 1171.19 221.293C1169.55 223.916 1167.14 225.942 1164.3 227.086C1161.46 228.231 1158.33 228.435 1155.34 227.672C1152.36 226.909 1149.67 225.216 1147.66 222.832L1134.63 207.405L1140.24 222.925C1141.25 225.736 1141.41 228.78 1140.71 231.664C1140.01 234.549 1138.47 237.143 1136.3 239.114C1134.12 241.084 1131.41 242.341 1128.51 242.723C1125.61 243.105 1122.66 242.594 1120.02 241.256L1059.78 210.537L1088.87 245.484C1090.71 247.703 1091.89 250.409 1092.26 253.275C1092.63 256.141 1092.18 259.046 1090.96 261.637C1089.74 264.228 1087.81 266.395 1085.39 267.877C1082.98 269.359 1080.18 270.091 1077.35 269.987L1006.67 267.264L1105.03 289.868C1107.98 290.553 1110.66 292.142 1112.7 294.417C1114.75 296.693 1116.07 299.546 1116.48 302.59C1116.89 305.633 1116.37 308.719 1114.99 311.43C1113.62 314.141 1111.45 316.345 1108.78 317.743L1093.35 325.803L1111.75 324.123C1114.59 323.865 1117.45 324.457 1119.98 325.826C1122.52 327.195 1124.62 329.281 1126.02 331.83C1127.42 334.378 1128.07 337.279 1127.88 340.176C1127.69 343.073 1126.68 345.842 1124.97 348.143L1104.18 375.973C1106.78 375.477 1109.46 375.704 1111.96 376.63C1114.45 377.557 1116.66 379.149 1118.35 381.238C1120.05 383.327 1121.16 385.835 1121.57 388.499C1121.99 391.162 1121.69 393.882 1120.71 396.37L1100.89 446.588L1162.34 369.348C1164.06 367.185 1166.36 365.565 1168.96 364.675C1171.56 363.785 1174.36 363.66 1177.04 364.314C1179.73 364.968 1182.19 366.375 1184.14 368.374C1186.1 370.374 1187.47 372.885 1188.09 375.621L1211.49 477.762L1209.91 410.595C1209.85 407.715 1210.6 404.888 1212.08 402.453C1213.56 400.018 1215.71 398.079 1218.26 396.87C1220.82 395.66 1223.67 395.232 1226.48 395.636C1229.28 396.04 1231.92 397.26 1234.08 399.148L1262.73 424.285L1233.66 364.239C1232.4 361.668 1231.9 358.796 1232.19 355.96C1232.49 353.125 1233.58 350.445 1235.33 348.239C1237.09 346.032 1239.43 344.391 1242.09 343.51C1244.75 342.628 1247.61 342.543 1250.33 343.264L1347.9 369.155L1306.13 344.857C1303.63 343.405 1301.59 341.245 1300.26 338.642C1298.93 336.039 1298.38 333.107 1298.67 330.208C1298.95 327.308 1300.07 324.568 1301.88 322.326C1303.68 320.083 1306.1 318.436 1308.83 317.587L1313.44 316.144L1269.87 301.625C1267.06 300.689 1264.58 298.92 1262.76 296.546C1260.93 294.173 1259.85 291.305 1259.63 288.314C1259.42 285.324 1260.1 282.349 1261.57 279.775C1263.05 277.201 1265.25 275.147 1267.91 273.879L1316.62 250.749Z" fill="#FFCC00"/>
</g>
<g id="imagebot 5" filter="url(#filter2_f)">
<path fill-rule="evenodd" clip-rule="evenodd" d="M1285.95 322.11L1265.58 315.302C1261.89 314.064 1258.47 312.087 1255.53 309.487C1252.59 306.887 1250.18 303.717 1248.46 300.167C1246.73 296.616 1245.72 292.758 1245.48 288.82C1245.25 284.883 1245.79 280.947 1247.08 277.247C1243.28 275.823 1239.8 273.605 1236.87 270.739C1233.94 267.872 1231.63 264.419 1230.08 260.603C1228.53 256.787 1227.79 252.693 1227.88 248.586C1227.98 244.478 1228.93 240.448 1230.66 236.756C1225.81 235.577 1221.33 233.149 1217.65 229.706C1212.94 234.986 1206.47 238.308 1199.47 239.045C1192.47 239.782 1185.41 237.882 1179.63 233.706C1176.15 237.349 1171.79 239.994 1166.97 241.379C1162.15 242.764 1157.05 242.842 1152.16 241.605C1148.71 248.401 1142.77 253.518 1135.6 255.86C1128.44 258.202 1120.62 257.582 1113.83 254.134L1106.15 250.221C1106.89 254.405 1106.74 258.693 1105.7 262.789C1104.66 266.885 1102.76 270.693 1100.13 273.95L1108.03 275.756C1112.05 276.686 1115.84 278.477 1119.15 281.008C1122.45 283.54 1125.19 286.753 1127.19 290.434C1129.19 294.115 1130.4 298.179 1130.74 302.353C1131.08 306.528 1130.54 310.717 1129.16 314.64C1132.46 316.889 1135.28 319.797 1137.45 323.185C1139.61 326.573 1141.08 330.369 1141.75 334.338C1142.43 338.307 1142.3 342.364 1141.37 346.26C1140.44 350.155 1138.74 353.805 1136.36 356.985L1126.95 369.558C1130.33 372.852 1132.89 376.919 1134.41 381.412L1151.29 360.155C1154.68 355.897 1159.19 352.709 1164.31 350.957C1169.42 349.204 1174.93 348.957 1180.22 350.244C1185.5 351.531 1190.34 354.3 1194.18 358.235C1198.02 362.17 1200.71 367.111 1201.95 372.495L1205.54 388.175C1211.19 383.162 1218.57 380.622 1226.1 381.098L1220.94 370.471C1218.49 365.414 1217.51 359.765 1218.1 354.193C1218.7 348.622 1220.85 343.36 1224.31 339.03C1227.76 334.7 1232.37 331.483 1237.6 329.758C1242.83 328.034 1248.45 327.875 1253.8 329.3L1285.13 337.619C1283.98 332.489 1284.19 327.154 1285.75 322.169L1285.95 322.11Z" fill="#FFCC00"/>
</g>
</g>
</g>
</g>
<defs>
<filter id="filter0_f" x="929.392" y="76.1811" width="472.683" height="473.277" filterUnits="userSpaceOnUse" color-interpolation-filters="sRGB">
<feFlood flood-opacity="0" result="BackgroundImageFix"/>
<feBlend mode="normal" in="SourceGraphic" in2="BackgroundImageFix" result="shape"/>
<feGaussianBlur stdDeviation="5.95516" result="effect1_foregroundBlur"/>
</filter>
<filter id="filter1_f" x="994.759" y="150.469" width="365.056" height="339.203" filterUnits="userSpaceOnUse" color-interpolation-filters="sRGB">
<feFlood flood-opacity="0" result="BackgroundImageFix"/>
<feBlend mode="normal" in="SourceGraphic" in2="BackgroundImageFix" result="shape"/>
<feGaussianBlur stdDeviation="5.95516" result="effect1_foregroundBlur"/>
</filter>
<filter id="filter2_f" x="1088.22" y="217.795" width="209.635" height="182.289" filterUnits="userSpaceOnUse" color-interpolation-filters="sRGB">
<feFlood flood-opacity="0" result="BackgroundImageFix"/>
<feBlend mode="normal" in="SourceGraphic" in2="BackgroundImageFix" result="shape"/>
<feGaussianBlur stdDeviation="5.95516" result="effect1_foregroundBlur"/>
</filter>
<clipPath id="clip0">
<rect width="1600" height="1200" fill="white"/>
</clipPath>
</defs>
</svg>
