<svg width="785" height="622" viewBox="0 0 785 622" fill="none" xmlns="http://www.w3.org/2000/svg">
<g id="1270762888 1" clip-path="url(#clip0)">
<g id="whole explosion">
<path id="outter" d="M172.42 80.606C218.72 112.23 279.16 168.799 233.636 38.388C287.673 131.236 317.445 147.978 309.629 46.8316C335.684 119.148 360.27 101.867 383.511 2.50259C397.089 196.803 422.352 131.113 446.838 82.7166C450.698 96.7606 441.539 144.857 461.614 116.491C523.491 161.993 577.444 86.3106 617.824 40.4976C554.613 153.368 652.318 115.068 721.784 103.297C630.372 175.007 747.27 138.147 769.807 127.045C740.752 152.16 703.88 180.852 755.031 169.263C697.926 222.739 690.732 267.008 778.251 293.803C747.383 308.869 737.299 340.089 782.473 340.243C754.079 342.54 744.43 357.517 782.473 363.463C652.843 388.152 732.302 425.935 769.808 456.343C581.428 404.173 686.597 514.964 755.032 566.113C633.852 493.951 498.342 436.783 611.492 568.224C582.683 552.499 542.802 519.473 556.608 570.334C511.662 510.497 501.159 521.57 503.835 559.779C460.033 511.384 436.535 533.132 423.621 591.443C402.07 578.697 397.57 514.796 337.074 618.885C344.887 571.28 323.538 567.418 286.412 587.221C286.867 528.717 239.715 596.553 225.196 610.441C232.149 532.752 197.181 562.861 166.091 582.999C191.79 496.754 92.8088 546.524 33.1008 553.446C90.4398 517.938 143.481 483.113 79.5408 466.899C157.912 411.611 56.7818 418.94 26.7678 401.461C55.8538 388.529 115.56 385.101 68.9858 348.688C121.183 310.331 33.1598 293.22 2.49182 267.418C61.0338 262.04 133.942 260.96 67.9298 223.089C95.4298 224.526 117.28 227.887 83.7618 198.814C130.756 221.246 105.068 158.357 90.0945 108.045C150.498 164.956 231.965 199.52 172.42 80.6034L172.42 80.606Z" fill="#F56D3C" stroke="#FF2626" stroke-width="5"/>
<path id="mid" d="M202.131 127.217C240.858 153.623 291.411 200.859 253.334 91.9647C298.531 169.494 323.433 183.473 316.896 99.0152C338.689 159.4 359.253 144.97 378.692 62C390.049 224.242 411.179 169.391 431.66 128.979C434.889 140.706 427.228 180.867 444.019 157.181C495.774 195.176 540.902 131.981 574.676 93.7262C521.805 187.974 603.528 155.993 661.63 146.164C585.172 206.043 682.947 175.264 701.798 165.994C677.496 186.965 646.655 210.923 689.439 201.246C641.675 245.899 635.658 282.864 708.861 305.238C683.042 317.819 674.607 343.888 712.392 344.016C688.642 345.934 680.572 358.44 712.392 363.405C603.967 384.021 670.428 415.57 701.798 440.961C544.234 397.398 632.199 489.91 689.439 532.62C588.082 472.364 474.739 424.628 569.38 534.383C545.283 521.252 511.926 493.675 523.474 536.145C485.88 486.181 477.095 495.427 479.333 527.332C442.696 486.921 423.042 505.081 412.241 553.771C394.215 543.128 390.451 489.77 339.851 576.686C346.386 536.935 328.529 533.71 297.476 550.246C297.857 501.395 258.418 558.038 246.274 569.635C252.09 504.764 222.842 529.905 196.837 546.721C218.333 474.705 135.543 516.264 85.602 522.044C133.561 492.394 177.926 463.315 124.445 449.776C189.996 403.61 105.409 409.73 80.3049 395.135C104.633 384.336 154.572 381.474 115.617 351.069C159.276 319.04 85.6513 304.752 60 283.207C108.966 278.717 169.947 277.815 114.734 246.192C137.735 247.392 156.011 250.198 127.976 225.922C167.283 244.653 145.797 192.14 133.273 150.129C183.795 197.651 251.936 226.512 202.131 127.215L202.131 127.217Z" fill="#FFFE48"/>
<path id="inner" d="M260.988 190.549C341.121 318.882 373.073 274.744 355.453 170.419C380.011 270.659 433.936 350 446 166.645C454.664 346.163 488.608 287.749 567.641 166.645C502.959 295.916 557.198 275.071 672.28 218.227C573.088 266.123 537.694 308.929 679 310C480.002 317.424 621.62 355.104 672.28 361C584.757 368.953 525 335 593 466C482 337 439.315 400.146 433.936 495C399 417 403.191 366.718 339.471 492.484C319 349 253 429 217 492.484C261.384 386.336 144 397 144 397C173.153 379.394 240.234 348.418 144 301.885C260.993 337.917 264.319 303.993 204.313 206.899C277.977 304.633 344.302 345.61 260.993 190.544L260.988 190.549Z" fill="#FAFFAC" stroke="#FF2626" stroke-width="0.999974"/>
</g>
</g>
<defs>
<clipPath id="clip0">
<rect width="784.98" height="621.38" fill="white"/>
</clipPath>
</defs>
</svg>
