<svg width="550" height="385" viewBox="0 0 550 385" fill="none" xmlns="http://www.w3.org/2000/svg">
<g id="WrestlingRing 1" clip-path="url(#clip0)">
<g id="Group">
<g id="background">
<path id="back color" d="M550 50H0V385H550V50Z" fill="#0B1030"/>
<g id="crowd">
<g id="back row">
<path id="Vector" d="M309 232.8C309 232.3 309.1 231.8 309.2 231.4C308.5 228.8 306.2 226.8 303.3 226.8H301.5V225.7C303.6 224.4 305.1 222 305.1 219.3C305.1 215.2 301.8 211.8 297.6 211.8C293.5 211.8 290.1 215.1 290.1 219.3C290.1 222.3 291.8 224.8 294.4 226V226.7H292.6C289.3 226.7 286.5 229.4 286.5 232.8V258.4C286.5 261.7 289.2 264.5 292.6 264.5H303.3C306.1 264.5 308.5 262.5 309.2 259.9C309.1 259.4 309 259 309 258.5V232.8Z" fill="#141A54"/>
<path id="Vector_2" d="M280.5 226.7H278.7V225.6C280.8 224.3 282.3 221.9 282.3 219.2C282.3 215.1 279 211.7 274.8 211.7C270.7 211.7 267.3 215 267.3 219.2C267.3 222.2 269 224.7 271.6 225.9V226.6H269.8C266.5 226.6 263.7 229.3 263.7 232.7V258.3C263.7 261.6 266.4 264.4 269.8 264.4H280.5C283.8 264.4 286.6 261.7 286.6 258.3V232.7C286.6 229.5 283.9 226.7 280.5 226.7Z" fill="#141A54"/>
<path id="Vector_3" d="M257.7 226.7H256V225.6C258.1 224.3 259.6 221.9 259.6 219.2C259.6 215.1 256.3 211.7 252.1 211.7C248 211.7 244.6 215 244.6 219.2C244.6 222.2 246.3 224.7 248.9 225.9V226.6H247.1C243.8 226.6 241 229.3 241 232.7V258.3C241 261.6 243.7 264.4 247.1 264.4H257.8C261.1 264.4 263.9 261.7 263.9 258.3V232.7C263.8 229.5 261.1 226.7 257.7 226.7Z" fill="#141A54"/>
<path id="Vector_4" d="M235 226.7H233.2V225.6C235.3 224.3 236.8 221.9 236.8 219.2C236.8 215.1 233.5 211.7 229.3 211.7C225.2 211.7 221.8 215 221.8 219.2C221.8 222.2 223.5 224.7 226.1 225.9V226.6H224.3C221 226.6 218.2 229.3 218.2 232.7V258.3C218.2 261.6 220.9 264.4 224.3 264.4H235C238.3 264.4 241.1 261.7 241.1 258.3V232.7C241 229.5 238.3 226.7 235 226.7Z" fill="#141A54"/>
<path id="Vector_5" d="M212.2 226.7H210.4V225.6C212.5 224.3 214 221.9 214 219.2C214 215.1 210.7 211.7 206.5 211.7C202.4 211.7 199 215 199 219.2C199 222.2 200.7 224.7 203.3 225.9V226.6H201.5C198.2 226.6 195.4 229.3 195.4 232.7V258.3C195.4 261.6 198.1 264.4 201.5 264.4H212.2C215.5 264.4 218.3 261.7 218.3 258.3V232.7C218.2 229.5 215.5 226.7 212.2 226.7Z" fill="#141A54"/>
<path id="Vector_6" d="M189.4 226.7H187.6V225.6C189.7 224.3 191.2 221.9 191.2 219.2C191.2 215.1 187.9 211.7 183.7 211.7C179.6 211.7 176.2 215 176.2 219.2C176.2 222.2 177.9 224.7 180.5 225.9V226.6H178.7C175.4 226.6 172.6 229.3 172.6 232.7V258.3C172.6 261.6 175.3 264.4 178.7 264.4H189.4C192.7 264.4 195.5 261.7 195.5 258.3V232.7C195.4 229.5 192.7 226.7 189.4 226.7Z" fill="#141A54"/>
<path id="Vector_7" d="M166.6 226.7H164.8V225.6C166.9 224.3 168.4 221.9 168.4 219.2C168.4 215.1 165.1 211.7 160.9 211.7C156.8 211.7 153.4 215 153.4 219.2C153.4 222.2 155.1 224.7 157.7 225.9V226.6H155.9C152.6 226.6 149.8 229.3 149.8 232.7V258.3C149.8 261.6 152.5 264.4 155.9 264.4H166.6C169.9 264.4 172.7 261.7 172.7 258.3V232.7C172.6 229.5 169.9 226.7 166.6 226.7Z" fill="#141A54"/>
<path id="Vector_8" d="M143.8 226.7H142V225.6C144.1 224.3 145.6 221.9 145.6 219.2C145.6 215.1 142.3 211.7 138.1 211.7C134 211.7 130.6 215 130.6 219.2C130.6 222.2 132.3 224.7 134.9 225.9V226.6H133.1C129.8 226.6 127 229.3 127 232.7V258.3C127 261.6 129.7 264.4 133.1 264.4H143.8C147.1 264.4 149.9 261.7 149.9 258.3V232.7C149.8 229.5 147.1 226.7 143.8 226.7Z" fill="#141A54"/>
<path id="Vector_9" d="M121 226.7H119.2V225.6C121.3 224.3 122.8 221.9 122.8 219.2C122.8 215.1 119.5 211.7 115.3 211.7C111.2 211.7 107.8 215 107.8 219.2C107.8 222.2 109.5 224.7 112.1 225.9V226.6H110.3C107 226.6 104.2 229.3 104.2 232.7V258.3C104.2 261.6 106.9 264.4 110.3 264.4H121C124.3 264.4 127.1 261.7 127.1 258.3V232.7C127.1 229.5 124.3 226.7 121 226.7Z" fill="#141A54"/>
<path id="Vector_10" d="M98.2 226.7H96.4V225.6C98.5 224.3 100 221.9 100 219.2C100 215.1 96.7 211.7 92.5 211.7C88.4 211.7 85 215 85 219.2C85 222.2 86.7 224.7 89.3 225.9V226.6H87.5C84.2 226.6 81.4 229.3 81.4 232.7V258.3C81.4 261.6 84.1 264.4 87.5 264.4H98.2C101.5 264.4 104.3 261.7 104.3 258.3V232.7C104.3 229.5 101.6 226.7 98.2 226.7Z" fill="#141A54"/>
<path id="Vector_11" d="M75.4 226.7H73.6V225.6C75.7 224.3 77.2 221.9 77.2 219.2C77.2 215.1 73.9 211.7 69.7 211.7C65.6 211.7 62.2 215 62.2 219.2C62.2 222.2 63.9 224.7 66.5 225.9V226.6H64.7C61.4 226.6 58.6 229.3 58.6 232.7V258.3C58.6 261.6 61.3 264.4 64.7 264.4H75.4C78.7 264.4 81.5 261.7 81.5 258.3V232.7C81.5 229.5 78.8 226.7 75.4 226.7Z" fill="#141A54"/>
<path id="Vector_12" d="M52.6 226.7H50.8V225.6C52.9 224.3 54.4 221.9 54.4 219.2C54.4 215.1 51.1 211.7 46.9 211.7C42.8 211.7 39.4 215 39.4 219.2C39.4 222.2 41.1 224.7 43.7 225.9V226.6H42C38.7 226.6 35.9 229.3 35.9 232.7V258.3C35.9 261.6 38.6 264.4 42 264.4H52.7C56 264.4 58.8 261.7 58.8 258.3V232.7C58.7 229.5 56 226.7 52.6 226.7Z" fill="#141A54"/>
<path id="Vector_13" d="M29.8 226.7H28V225.6C30.1 224.3 31.6 221.9 31.6 219.2C31.6 215.1 28.3 211.7 24.1 211.7C20 211.7 16.6 215 16.6 219.2C16.6 222.2 18.3 224.7 20.9 225.9V226.6H19.1C15.8 226.6 13 229.3 13 232.7V258.3C13 261.6 15.7 264.4 19.1 264.4H29.8C33.1 264.4 35.9 261.7 35.9 258.3V232.7C35.9 229.5 33.2 226.7 29.8 226.7Z" fill="#141A54"/>
<path id="Vector_14" d="M13.1 258.4V232.8C13.1 229.5 10.4 226.7 7 226.7H5.3V225.6C7.4 224.3 8.9 221.9 8.9 219.2C8.9 215.1 5.6 211.7 1.4 211.7C0.9 211.7 0.5 211.7 0 211.8V264.4H7C10.4 264.5 13.1 261.8 13.1 258.4Z" fill="#141A54"/>
<path id="Vector_15" d="M540.5 219.3C540.5 222.3 542.2 224.8 544.8 226V226.7H543C539.7 226.7 536.9 229.4 536.9 232.8V258.4C536.9 261.7 539.6 264.5 543 264.5H550V212.1C549.3 211.9 548.7 211.8 547.9 211.8C543.8 211.8 540.5 215.1 540.5 219.3Z" fill="#141A54"/>
<path id="Vector_16" d="M530.8 226.7H529V225.6C531.1 224.3 532.6 221.9 532.6 219.2C532.6 215.1 529.3 211.7 525.1 211.7C521 211.7 517.6 215 517.6 219.2C517.6 222.2 519.4 224.7 521.9 225.9V226.6H520.1C516.8 226.6 514 229.3 514 232.7V258.3C514 261.6 516.7 264.4 520.1 264.4H530.8C534.1 264.4 536.9 261.7 536.9 258.3V232.7C536.9 229.5 534.2 226.7 530.8 226.7Z" fill="#141A54"/>
<path id="Vector_17" d="M508 226.7H506.2V225.6C508.3 224.3 509.8 221.9 509.8 219.2C509.8 215.1 506.5 211.7 502.3 211.7C498.2 211.7 494.8 215 494.8 219.2C494.8 222.2 496.5 224.7 499.1 225.9V226.6H497.3C494 226.6 491.2 229.3 491.2 232.7V258.3C491.2 261.6 493.9 264.4 497.3 264.4H508C511.3 264.4 514.1 261.7 514.1 258.3V232.7C514.1 229.5 511.4 226.7 508 226.7Z" fill="#141A54"/>
<path id="Vector_18" d="M485.3 226.7H483.5V225.6C485.6 224.3 487.1 221.9 487.1 219.2C487.1 215.1 483.8 211.7 479.6 211.7C475.5 211.7 472.1 215 472.1 219.2C472.1 222.2 473.9 224.7 476.4 225.9V226.6H474.6C471.3 226.6 468.5 229.3 468.5 232.7V258.3C468.5 261.6 471.2 264.4 474.6 264.4H485.3C488.6 264.4 491.4 261.7 491.4 258.3V232.7C491.3 229.5 488.6 226.7 485.3 226.7Z" fill="#141A54"/>
<path id="Vector_19" d="M462.5 226.7H460.7V225.6C462.8 224.3 464.3 221.9 464.3 219.2C464.3 215.1 461 211.7 456.8 211.7C452.7 211.7 449.3 215 449.3 219.2C449.3 222.2 451.1 224.7 453.6 225.9V226.6H451.8C448.5 226.6 445.7 229.3 445.7 232.7V258.3C445.7 261.6 448.4 264.4 451.8 264.4H462.5C465.8 264.4 468.6 261.7 468.6 258.3V232.7C468.5 229.5 465.8 226.7 462.5 226.7Z" fill="#141A54"/>
<path id="Vector_20" d="M439.7 226.7H437.9V225.6C440 224.3 441.5 221.9 441.5 219.2C441.5 215.1 438.2 211.7 434 211.7C429.9 211.7 426.5 215 426.5 219.2C426.5 222.2 428.2 224.7 430.8 225.9V226.6H429C425.7 226.6 422.9 229.3 422.9 232.7V258.3C422.9 261.6 425.6 264.4 429 264.4H439.7C443 264.4 445.8 261.7 445.8 258.3V232.7C445.7 229.5 443 226.7 439.7 226.7Z" fill="#141A54"/>
<path id="Vector_21" d="M416.9 226.7H415.1V225.6C417.2 224.3 418.7 221.9 418.7 219.2C418.7 215.1 415.4 211.7 411.2 211.7C407.1 211.7 403.7 215 403.7 219.2C403.7 222.2 405.5 224.7 408 225.9V226.6H406.2C402.9 226.6 400.1 229.3 400.1 232.7V258.3C400.1 261.6 402.8 264.4 406.2 264.4H416.9C420.2 264.4 423 261.7 423 258.3V232.7C422.9 229.5 420.2 226.7 416.9 226.7Z" fill="#141A54"/>
<path id="Vector_22" d="M394.1 226.7H392.3V225.6C394.4 224.3 395.9 221.9 395.9 219.2C395.9 215.1 392.6 211.7 388.4 211.7C384.3 211.7 380.9 215 380.9 219.2C380.9 222.2 382.6 224.7 385.2 225.9V226.6H383.4C380.1 226.6 377.3 229.3 377.3 232.7V258.3C377.3 261.6 380 264.4 383.4 264.4H394.1C397.4 264.4 400.2 261.7 400.2 258.3V232.7C400.2 229.5 397.4 226.7 394.1 226.7Z" fill="#141A54"/>
<path id="Vector_23" d="M371.3 226.7H369.5V225.6C371.6 224.3 373.1 221.9 373.1 219.2C373.1 215.1 369.8 211.7 365.6 211.7C361.4 211.7 358.1 215 358.1 219.2C358.1 222.2 359.8 224.7 362.4 225.9V226.6H360.6C357.3 226.6 354.5 229.3 354.5 232.7V258.3C354.5 261.6 357.2 264.4 360.6 264.4H371.3C374.6 264.4 377.4 261.7 377.4 258.3V232.7C377.4 229.5 374.7 226.7 371.3 226.7Z" fill="#141A54"/>
<path id="Vector_24" d="M348.5 226.7H346.7V225.6C348.8 224.3 350.3 221.9 350.3 219.2C350.3 215.1 347 211.7 342.8 211.7C338.7 211.7 335.3 215 335.3 219.2C335.3 222.2 337.1 224.7 339.6 225.9V226.6H337.8C334.5 226.6 331.7 229.3 331.7 232.7V258.3C331.7 261.6 334.4 264.4 337.8 264.4H348.5C351.8 264.4 354.6 261.7 354.6 258.3V232.7C354.6 229.5 351.9 226.7 348.5 226.7Z" fill="#141A54"/>
<path id="Vector_25" d="M325.7 226.7H323.9V225.6C326 224.3 327.5 221.9 327.5 219.2C327.5 215.1 324.2 211.7 320 211.7C315.9 211.7 312.5 215 312.5 219.2C312.5 222.2 314.2 224.7 316.8 225.9V226.6H315C312.2 226.6 309.8 228.6 309.1 231.2C309 231.7 308.9 232.1 308.9 232.6V258.2C308.9 258.7 309 259.2 309.1 259.6C309.8 262.2 312.1 264.2 315 264.2H325.7C329 264.2 331.8 261.5 331.8 258.1V232.5C331.8 229.5 329.1 226.7 325.7 226.7Z" fill="#141A54"/>
</g>
<g id="middle row">
<g id="Group_2">
<path id="Vector_26" d="M315 254.4H313.2V253.3C315.3 252 316.8 249.6 316.8 246.9C316.8 242.7 313.4 239.4 309.3 239.4C305.1 239.4 301.8 242.8 301.8 246.9C301.8 249.9 303.6 252.5 306.1 253.7V254.4H304.3C300.9 254.4 298.2 257.1 298.2 260.5V286.3C298.2 289.7 300.9 292.4 304.3 292.4H315C318.4 292.4 321.1 289.7 321.1 286.3V260.5C321.1 257.1 318.3 254.4 315 254.4Z" fill="#1F2985"/>
<path id="Vector_27" d="M292 254.4H290.2V253.3C292.3 252 293.8 249.6 293.8 246.9C293.8 242.7 290.4 239.4 286.3 239.4C282.1 239.4 278.8 242.8 278.8 246.9C278.8 249.9 280.6 252.5 283.1 253.7V254.4H281.3C277.9 254.4 275.2 257.1 275.2 260.5V286.3C275.2 289.7 277.9 292.4 281.3 292.4H292C295.4 292.4 298.1 289.7 298.1 286.3V260.5C298.1 257.1 295.4 254.4 292 254.4Z" fill="#1F2985"/>
<path id="Vector_28" d="M269.1 254.4H267.3V253.3C269.4 252 270.9 249.6 270.9 246.9C270.9 242.7 267.5 239.4 263.4 239.4C259.2 239.4 255.9 242.8 255.9 246.9C255.9 249.9 257.7 252.5 260.2 253.7V254.4H258.4C255 254.4 252.3 257.1 252.3 260.5V286.3C252.3 289.7 255 292.4 258.4 292.4H269.1C272.5 292.4 275.2 289.7 275.2 286.3V260.5C275.2 257.1 272.5 254.4 269.1 254.4Z" fill="#1F2985"/>
<path id="Vector_29" d="M246.2 254.4H244.4V253.3C246.5 252 248 249.6 248 246.9C248 242.7 244.6 239.4 240.5 239.4C236.3 239.4 233 242.8 233 246.9C233 249.9 234.8 252.5 237.3 253.7V254.4H235.5C232.1 254.4 229.4 257.1 229.4 260.5V286.3C229.4 289.7 232.1 292.4 235.5 292.4H246.2C249.6 292.4 252.3 289.7 252.3 286.3V260.5C252.3 257.1 249.5 254.4 246.2 254.4Z" fill="#1F2985"/>
<path id="Vector_30" d="M223.2 254.4H221.4V253.3C223.5 252 225 249.6 225 246.9C225 242.7 221.6 239.4 217.5 239.4C213.4 239.4 210 242.8 210 246.9C210 249.9 211.8 252.5 214.3 253.7V254.4H212.5C209.1 254.4 206.4 257.1 206.4 260.5V286.3C206.4 289.7 209.1 292.4 212.5 292.4H223.2C226.6 292.4 229.3 289.7 229.3 286.3V260.5C229.3 257.1 226.6 254.4 223.2 254.4Z" fill="#1F2985"/>
<path id="Vector_31" d="M200.3 254.4H198.5V253.3C200.6 252 202.1 249.6 202.1 246.9C202.1 242.7 198.7 239.4 194.6 239.4C190.4 239.4 187.1 242.8 187.1 246.9C187.1 249.9 188.9 252.5 191.4 253.7V254.4H189.6C186.2 254.4 183.5 257.1 183.5 260.5V286.3C183.5 289.7 186.2 292.4 189.6 292.4H200.3C203.7 292.4 206.4 289.7 206.4 286.3V260.5C206.4 257.1 203.7 254.4 200.3 254.4Z" fill="#1F2985"/>
<path id="Vector_32" d="M177.4 254.4H175.6V253.3C177.7 252 179.2 249.6 179.2 246.9C179.2 242.7 175.8 239.4 171.7 239.4C167.5 239.4 164.2 242.8 164.2 246.9C164.2 249.9 166 252.5 168.5 253.7V254.4H166.7C163.3 254.4 160.6 257.1 160.6 260.5V286.3C160.6 289.7 163.3 292.4 166.7 292.4H177.4C180.8 292.4 183.5 289.7 183.5 286.3V260.5C183.5 257.1 180.7 254.4 177.4 254.4Z" fill="#1F2985"/>
<path id="Vector_33" d="M154.4 254.4H152.6V253.3C154.7 252 156.2 249.6 156.2 246.9C156.2 242.7 152.8 239.4 148.7 239.4C144.5 239.4 141.2 242.8 141.2 246.9C141.2 249.9 143 252.5 145.5 253.7V254.4H143.7C140.3 254.4 137.6 257.1 137.6 260.5V286.3C137.6 289.7 140.3 292.4 143.7 292.4H154.4C157.8 292.4 160.5 289.7 160.5 286.3V260.5C160.5 257.1 157.8 254.4 154.4 254.4Z" fill="#1F2985"/>
<path id="Vector_34" d="M131.5 254.4H129.7V253.3C131.8 252 133.3 249.6 133.3 246.9C133.3 242.7 129.9 239.4 125.8 239.4C121.6 239.4 118.3 242.8 118.3 246.9C118.3 249.9 120.1 252.5 122.6 253.7V254.4H120.8C117.4 254.4 114.7 257.1 114.7 260.5V286.3C114.7 289.7 117.4 292.4 120.8 292.4H131.5C134.9 292.4 137.6 289.7 137.6 286.3V260.5C137.6 257.1 134.9 254.4 131.5 254.4Z" fill="#1F2985"/>
<path id="Vector_35" d="M108.6 254.4H106.8V253.3C108.9 252 110.4 249.6 110.4 246.9C110.4 242.7 107 239.4 102.9 239.4C98.7 239.4 95.4 242.8 95.4 246.9C95.4 249.9 97.2 252.5 99.7 253.7V254.4H97.9C94.5 254.4 91.8 257.1 91.8 260.5V286.3C91.8 289.7 94.5 292.4 97.9 292.4H108.6C112 292.4 114.7 289.7 114.7 286.3V260.5C114.7 257.1 111.9 254.4 108.6 254.4Z" fill="#1F2985"/>
<path id="Vector_36" d="M85.6 254.4H83.8V253.3C85.9 252 87.4 249.6 87.4 246.9C87.4 242.7 84 239.4 79.9 239.4C75.7 239.4 72.4 242.8 72.4 246.9C72.4 249.9 74.2 252.5 76.7 253.7V254.4H74.9C71.5 254.4 68.8 257.1 68.8 260.5V286.3C68.8 289.7 71.5 292.4 74.9 292.4H85.6C89 292.4 91.7 289.7 91.7 286.3V260.5C91.7 257.1 89 254.4 85.6 254.4Z" fill="#1F2985"/>
<path id="Vector_37" d="M62.7 254.4H60.9V253.3C63 252 64.5 249.6 64.5 246.9C64.5 242.7 61.1 239.4 57 239.4C52.8 239.4 49.5 242.8 49.5 246.9C49.5 249.9 51.3 252.5 53.8 253.7V254.4H52C48.6 254.4 45.9 257.1 45.9 260.5V286.3C45.9 289.7 48.6 292.4 52 292.4H62.7C66.1 292.4 68.8 289.7 68.8 286.3V260.5C68.8 257.1 66.1 254.4 62.7 254.4Z" fill="#1F2985"/>
<path id="Vector_38" d="M39.8 254.4H38V253.3C40.1 252 41.6 249.6 41.6 246.9C41.6 242.7 38.2 239.4 34.1 239.4C29.9 239.4 26.6 242.8 26.6 246.9C26.6 249.9 28.4 252.5 30.9 253.7V254.4H29C25.6 254.4 22.9 257.1 22.9 260.5V286.3C22.9 289.7 25.6 292.4 29 292.4H39.7C43.1 292.4 45.8 289.7 45.8 286.3V260.5C45.9 257.1 43.1 254.4 39.8 254.4Z" fill="#1F2985"/>
<path id="Vector_39" d="M16.8 254.4H15V253.3C17.1 252 18.6 249.6 18.6 246.9C18.6 242.7 15.2 239.4 11.1 239.4C6.9 239.4 3.6 242.8 3.6 246.9C3.6 249.9 5.4 252.5 7.9 253.7V254.4H6.1C2.7 254.4 0 257.1 0 260.5V286.3C0 289.7 2.7 292.4 6.1 292.4H16.8C20.2 292.4 22.9 289.7 22.9 286.3V260.5C22.9 257.1 20.2 254.4 16.8 254.4Z" fill="#1F2985"/>
</g>
<g id="Group_3">
<path id="Vector_40" d="M543.9 254.4H542.1V253.3C544.2 252 545.7 249.6 545.7 246.9C545.7 242.7 542.3 239.4 538.2 239.4C534.1 239.4 530.7 242.8 530.7 246.9C530.7 249.9 532.5 252.5 535 253.7V254.4H533.2C529.8 254.4 527.1 257.1 527.1 260.5V286.3C527.1 289.7 529.8 292.4 533.2 292.4H543.9C547.3 292.4 550 289.7 550 286.3V260.5C550 257.1 547.3 254.4 543.9 254.4Z" fill="#1F2985"/>
<path id="Vector_41" d="M521 254.4H519.2V253.3C521.3 252 522.8 249.6 522.8 246.9C522.8 242.7 519.4 239.4 515.3 239.4C511.1 239.4 507.8 242.8 507.8 246.9C507.8 249.9 509.6 252.5 512.1 253.7V254.4H510.3C506.9 254.4 504.2 257.1 504.2 260.5V286.3C504.2 289.7 506.9 292.4 510.3 292.4H521C524.4 292.4 527.1 289.7 527.1 286.3V260.5C527.1 257.1 524.3 254.4 521 254.4Z" fill="#1F2985"/>
<path id="Vector_42" d="M498 254.4H496.2V253.3C498.3 252 499.8 249.6 499.8 246.9C499.8 242.7 496.4 239.4 492.3 239.4C488.1 239.4 484.8 242.8 484.8 246.9C484.8 249.9 486.6 252.5 489.1 253.7V254.4H487.3C483.9 254.4 481.2 257.1 481.2 260.5V286.3C481.2 289.7 483.9 292.4 487.3 292.4H498C501.4 292.4 504.1 289.7 504.1 286.3V260.5C504.1 257.1 501.4 254.4 498 254.4Z" fill="#1F2985"/>
<path id="Vector_43" d="M475.1 254.4H473.3V253.3C475.4 252 476.9 249.6 476.9 246.9C476.9 242.7 473.5 239.4 469.4 239.4C465.2 239.4 461.9 242.8 461.9 246.9C461.9 249.9 463.7 252.5 466.2 253.7V254.4H464.4C461 254.4 458.3 257.1 458.3 260.5V286.3C458.3 289.7 461 292.4 464.4 292.4H475.1C478.5 292.4 481.2 289.7 481.2 286.3V260.5C481.2 257.1 478.5 254.4 475.1 254.4Z" fill="#1F2985"/>
<path id="Vector_44" d="M452.2 254.4H450.4V253.3C452.5 252 454 249.6 454 246.9C454 242.7 450.6 239.4 446.5 239.4C442.3 239.4 439 242.8 439 246.9C439 249.9 440.8 252.5 443.3 253.7V254.4H441.5C438.1 254.4 435.4 257.1 435.4 260.5V286.3C435.4 289.7 438.1 292.4 441.5 292.4H452.2C455.6 292.4 458.3 289.7 458.3 286.3V260.5C458.3 257.1 455.5 254.4 452.2 254.4Z" fill="#1F2985"/>
<path id="Vector_45" d="M429.2 254.4H427.4V253.3C429.5 252 431 249.6 431 246.9C431 242.7 427.6 239.4 423.5 239.4C419.3 239.4 416 242.8 416 246.9C416 249.9 417.8 252.5 420.3 253.7V254.4H418.5C415.1 254.4 412.4 257.1 412.4 260.5V286.3C412.4 289.7 415.1 292.4 418.5 292.4H429.2C432.6 292.4 435.3 289.7 435.3 286.3V260.5C435.3 257.1 432.6 254.4 429.2 254.4Z" fill="#1F2985"/>
<path id="Vector_46" d="M406.3 254.4H404.5V253.3C406.6 252 408.1 249.6 408.1 246.9C408.1 242.7 404.7 239.4 400.6 239.4C396.4 239.4 393.1 242.8 393.1 246.9C393.1 249.9 394.9 252.5 397.4 253.7V254.4H395.6C392.2 254.4 389.5 257.1 389.5 260.5V286.3C389.5 289.7 392.2 292.4 395.6 292.4H406.3C409.7 292.4 412.4 289.7 412.4 286.3V260.5C412.4 257.1 409.7 254.4 406.3 254.4Z" fill="#1F2985"/>
<path id="Vector_47" d="M383.4 254.4H381.6V253.3C383.7 252 385.2 249.6 385.2 246.9C385.2 242.7 381.8 239.4 377.7 239.4C373.5 239.4 370.2 242.8 370.2 246.9C370.2 249.9 372 252.5 374.5 253.7V254.4H372.7C369.3 254.4 366.6 257.1 366.6 260.5V286.3C366.6 289.7 369.3 292.4 372.7 292.4H383.4C386.8 292.4 389.5 289.7 389.5 286.3V260.5C389.5 257.1 386.7 254.4 383.4 254.4Z" fill="#1F2985"/>
<path id="Vector_48" d="M360.4 254.4H358.6V253.3C360.7 252 362.2 249.6 362.2 246.9C362.2 242.7 358.8 239.4 354.7 239.4C350.5 239.4 347.2 242.8 347.2 246.9C347.2 249.9 349 252.5 351.5 253.7V254.4H349.7C346.3 254.4 343.6 257.1 343.6 260.5V286.3C343.6 289.7 346.3 292.4 349.7 292.4H360.4C363.8 292.4 366.5 289.7 366.5 286.3V260.5C366.5 257.1 363.8 254.4 360.4 254.4Z" fill="#1F2985"/>
<path id="Vector_49" d="M337.5 254.4H335.7V253.3C337.8 252 339.3 249.6 339.3 246.9C339.3 242.7 335.9 239.4 331.8 239.4C327.6 239.4 324.3 242.8 324.3 246.9C324.3 249.9 326.1 252.5 328.6 253.7V254.4H326.8C323.4 254.4 320.7 257.1 320.7 260.5V286.3C320.7 289.7 323.4 292.4 326.8 292.4H337.5C340.9 292.4 343.6 289.7 343.6 286.3V260.5C343.6 257.1 340.9 254.4 337.5 254.4Z" fill="#1F2985"/>
<path id="Vector_50" d="M314.6 254.4H312.8V253.3C314.9 252 316.4 249.6 316.4 246.9C316.4 242.7 313 239.4 308.9 239.4C304.7 239.4 301.4 242.8 301.4 246.9C301.4 249.9 303.2 252.5 305.7 253.7V254.4H303.9C300.5 254.4 297.8 257.1 297.8 260.5V286.3C297.8 289.7 300.5 292.4 303.9 292.4H314.6C318 292.4 320.7 289.7 320.7 286.3V260.5C320.7 257.1 317.9 254.4 314.6 254.4Z" fill="#1F2985"/>
</g>
</g>
<g id="front row">
<g id="Group_4">
<path id="Vector_51" d="M280.5 281.2H278.7V280.1C280.8 278.8 282.3 276.4 282.3 273.7C282.3 269.6 279 266.2 274.8 266.2C270.7 266.2 267.3 269.5 267.3 273.7C267.3 276.7 269 279.2 271.6 280.4V281.1H269.8C266.5 281.1 263.7 283.8 263.7 287.2V312.8C263.7 316.1 266.4 318.9 269.8 318.9H280.5C283.8 318.9 286.6 316.2 286.6 312.8V287.2C286.6 283.9 283.9 281.2 280.5 281.2Z" fill="#2D39BD"/>
<path id="Vector_52" d="M257.7 281.2H256V280.1C258.1 278.8 259.6 276.4 259.6 273.7C259.6 269.6 256.3 266.2 252.1 266.2C248 266.2 244.6 269.5 244.6 273.7C244.6 276.7 246.3 279.2 248.9 280.4V281.1H247.1C243.8 281.1 241 283.8 241 287.2V312.8C241 316.1 243.7 318.9 247.1 318.9H257.8C261.1 318.9 263.9 316.2 263.9 312.8V287.2C263.8 283.9 261.1 281.2 257.7 281.2Z" fill="#2D39BD"/>
<path id="Vector_53" d="M234.9 281.2H233.1V280.1C235.2 278.8 236.7 276.4 236.7 273.7C236.7 269.6 233.4 266.2 229.2 266.2C225.1 266.2 221.7 269.5 221.7 273.7C221.7 276.7 223.4 279.2 226 280.4V281.1H224.2C220.9 281.1 218.1 283.8 218.1 287.2V312.8C218.1 316.1 220.8 318.9 224.2 318.9H234.9C238.2 318.9 241 316.2 241 312.8V287.2C241 283.9 238.3 281.2 234.9 281.2Z" fill="#2D39BD"/>
<path id="Vector_54" d="M212.2 281.2H210.4V280.1C212.5 278.8 214 276.4 214 273.7C214 269.6 210.7 266.2 206.5 266.2C202.4 266.2 199 269.5 199 273.7C199 276.7 200.7 279.2 203.3 280.4V281.1H201.5C198.2 281.1 195.4 283.8 195.4 287.2V312.8C195.4 316.1 198.1 318.9 201.5 318.9H212.2C215.5 318.9 218.3 316.2 218.3 312.8V287.2C218.2 283.9 215.5 281.2 212.2 281.2Z" fill="#2D39BD"/>
<path id="Vector_55" d="M189.4 281.2H187.6V280.1C189.7 278.8 191.2 276.4 191.2 273.7C191.2 269.6 187.9 266.2 183.7 266.2C179.6 266.2 176.2 269.5 176.2 273.7C176.2 276.7 177.9 279.2 180.5 280.4V281.1H178.7C175.4 281.1 172.6 283.8 172.6 287.2V312.8C172.6 316.1 175.3 318.9 178.7 318.9H189.4C192.7 318.9 195.5 316.2 195.5 312.8V287.2C195.4 283.9 192.7 281.2 189.4 281.2Z" fill="#2D39BD"/>
<path id="Vector_56" d="M166.6 281.2H164.8V280.1C166.9 278.8 168.4 276.4 168.4 273.7C168.4 269.6 165.1 266.2 160.9 266.2C156.8 266.2 153.4 269.5 153.4 273.7C153.4 276.7 155.1 279.2 157.7 280.4V281.1H155.9C152.6 281.1 149.8 283.8 149.8 287.2V312.8C149.8 316.1 152.5 318.9 155.9 318.9H166.6C169.9 318.9 172.7 316.2 172.7 312.8V287.2C172.6 283.9 169.9 281.2 166.6 281.2Z" fill="#2D39BD"/>
<path id="Vector_57" d="M143.8 281.2H142V280.1C144.1 278.8 145.6 276.4 145.6 273.7C145.6 269.6 142.3 266.2 138.1 266.2C134 266.2 130.6 269.5 130.6 273.7C130.6 276.7 132.3 279.2 134.9 280.4V281.1H133.1C129.8 281.1 127 283.8 127 287.2V312.8C127 316.1 129.7 318.9 133.1 318.9H143.8C147.1 318.9 149.9 316.2 149.9 312.8V287.2C149.8 283.9 147.1 281.2 143.8 281.2Z" fill="#2D39BD"/>
<path id="Vector_58" d="M121 281.2H119.2V280.1C121.3 278.8 122.8 276.4 122.8 273.7C122.8 269.6 119.5 266.2 115.3 266.2C111.2 266.2 107.8 269.5 107.8 273.7C107.8 276.7 109.5 279.2 112.1 280.4V281.1H110.3C107 281.1 104.2 283.8 104.2 287.2V312.8C104.2 316.1 106.9 318.9 110.3 318.9H121C124.3 318.9 127.1 316.2 127.1 312.8V287.2C127.1 283.9 124.3 281.2 121 281.2Z" fill="#2D39BD"/>
<path id="Vector_59" d="M98.2 281.2H96.4V280.1C98.5 278.8 100 276.4 100 273.7C100 269.6 96.7 266.2 92.5 266.2C88.4 266.2 85 269.5 85 273.7C85 276.7 86.7 279.2 89.3 280.4V281.1H87.5C84.2 281.1 81.4 283.8 81.4 287.2V312.8C81.4 316.1 84.1 318.9 87.5 318.9H98.2C101.5 318.9 104.3 316.2 104.3 312.8V287.2C104.3 283.9 101.6 281.2 98.2 281.2Z" fill="#2D39BD"/>
<path id="Vector_60" d="M75.4 281.2H73.6V280.1C75.7 278.8 77.2 276.4 77.2 273.7C77.2 269.6 73.9 266.2 69.7 266.2C65.6 266.2 62.2 269.5 62.2 273.7C62.2 276.7 63.9 279.2 66.5 280.4V281.1H64.7C61.4 281.1 58.6 283.8 58.6 287.2V312.8C58.6 316.1 61.3 318.9 64.7 318.9H75.4C78.7 318.9 81.5 316.2 81.5 312.8V287.2C81.5 283.9 78.8 281.2 75.4 281.2Z" fill="#2D39BD"/>
<path id="Vector_61" d="M52.6 281.2H50.8V280.1C52.9 278.8 54.4 276.4 54.4 273.7C54.4 269.6 51.1 266.2 46.9 266.2C42.8 266.2 39.4 269.5 39.4 273.7C39.4 276.7 41.1 279.2 43.7 280.4V281.1H42C38.7 281.1 35.9 283.8 35.9 287.2V312.8C35.9 316.1 38.6 318.9 42 318.9H52.7C56 318.9 58.8 316.2 58.8 312.8V287.2C58.7 283.9 56 281.2 52.6 281.2Z" fill="#2D39BD"/>
<path id="Vector_62" d="M29.8 281.2H28V280.1C30.1 278.8 31.6 276.4 31.6 273.7C31.6 269.6 28.3 266.2 24.1 266.2C20 266.2 16.6 269.5 16.6 273.7C16.6 276.7 18.3 279.2 20.9 280.4V281.1H19.1C15.8 281.1 13 283.8 13 287.2V312.8C13 316.1 15.7 318.9 19.1 318.9H29.8C33.1 318.9 35.9 316.2 35.9 312.8V287.2C35.9 283.9 33.2 281.2 29.8 281.2Z" fill="#2D39BD"/>
</g>
<g id="Group_5">
<path id="Vector_63" d="M530.8 281.2H529V280.1C531.1 278.8 532.6 276.4 532.6 273.7C532.6 269.6 529.3 266.2 525.1 266.2C521 266.2 517.6 269.5 517.6 273.7C517.6 276.7 519.3 279.2 521.9 280.4V281.1H520.1C516.8 281.1 514 283.8 514 287.2V312.8C514 316.1 516.7 318.9 520.1 318.9H530.8C534.1 318.9 536.9 316.2 536.9 312.8V287.2C536.9 283.9 534.2 281.2 530.8 281.2Z" fill="#2D39BD"/>
<path id="Vector_64" d="M508 281.2H506.2V280.1C508.3 278.8 509.8 276.4 509.8 273.7C509.8 269.6 506.5 266.2 502.3 266.2C498.2 266.2 494.8 269.5 494.8 273.7C494.8 276.7 496.5 279.2 499.1 280.4V281.1H497.3C494 281.1 491.2 283.8 491.2 287.2V312.8C491.2 316.1 493.9 318.9 497.3 318.9H508C511.3 318.9 514.1 316.2 514.1 312.8V287.2C514.1 283.9 511.4 281.2 508 281.2Z" fill="#2D39BD"/>
<path id="Vector_65" d="M485.3 281.2H483.5V280.1C485.6 278.8 487.1 276.4 487.1 273.7C487.1 269.6 483.8 266.2 479.6 266.2C475.5 266.2 472.1 269.5 472.1 273.7C472.1 276.7 473.8 279.2 476.4 280.4V281.1H474.6C471.3 281.1 468.5 283.8 468.5 287.2V312.8C468.5 316.1 471.2 318.9 474.6 318.9H485.3C488.6 318.9 491.4 316.2 491.4 312.8V287.2C491.3 283.9 488.6 281.2 485.3 281.2Z" fill="#2D39BD"/>
<path id="Vector_66" d="M462.5 281.2H460.7V280.1C462.8 278.8 464.3 276.4 464.3 273.7C464.3 269.6 461 266.2 456.8 266.2C452.7 266.2 449.3 269.5 449.3 273.7C449.3 276.7 451 279.2 453.6 280.4V281.1H451.8C448.5 281.1 445.7 283.8 445.7 287.2V312.8C445.7 316.1 448.4 318.9 451.8 318.9H462.5C465.8 318.9 468.6 316.2 468.6 312.8V287.2C468.5 283.9 465.8 281.2 462.5 281.2Z" fill="#2D39BD"/>
<path id="Vector_67" d="M439.7 281.2H437.9V280.1C440 278.8 441.5 276.4 441.5 273.7C441.5 269.6 438.2 266.2 434 266.2C429.9 266.2 426.5 269.5 426.5 273.7C426.5 276.7 428.2 279.2 430.8 280.4V281.1H429C425.7 281.1 422.9 283.8 422.9 287.2V312.8C422.9 316.1 425.6 318.9 429 318.9H439.7C443 318.9 445.8 316.2 445.8 312.8V287.2C445.7 283.9 443 281.2 439.7 281.2Z" fill="#2D39BD"/>
<path id="Vector_68" d="M416.9 281.2H415.1V280.1C417.2 278.8 418.7 276.4 418.7 273.7C418.7 269.6 415.4 266.2 411.2 266.2C407.1 266.2 403.7 269.5 403.7 273.7C403.7 276.7 405.4 279.2 408 280.4V281.1H406.2C402.9 281.1 400.1 283.8 400.1 287.2V312.8C400.1 316.1 402.8 318.9 406.2 318.9H416.9C420.2 318.9 423 316.2 423 312.8V287.2C422.9 283.9 420.2 281.2 416.9 281.2Z" fill="#2D39BD"/>
<path id="Vector_69" d="M394.1 281.2H392.3V280.1C394.4 278.8 395.9 276.4 395.9 273.7C395.9 269.6 392.6 266.2 388.4 266.2C384.3 266.2 380.9 269.5 380.9 273.7C380.9 276.7 382.6 279.2 385.2 280.4V281.1H383.4C380.1 281.1 377.3 283.8 377.3 287.2V312.8C377.3 316.1 380 318.9 383.4 318.9H394.1C397.4 318.9 400.2 316.2 400.2 312.8V287.2C400.2 283.9 397.4 281.2 394.1 281.2Z" fill="#2D39BD"/>
<path id="Vector_70" d="M371.3 281.2H369.5V280.1C371.6 278.8 373.1 276.4 373.1 273.7C373.1 269.6 369.8 266.2 365.6 266.2C361.5 266.2 358.1 269.5 358.1 273.7C358.1 276.7 359.8 279.2 362.4 280.4V281.1H360.6C357.3 281.1 354.5 283.8 354.5 287.2V312.8C354.5 316.1 357.2 318.9 360.6 318.9H371.3C374.6 318.9 377.4 316.2 377.4 312.8V287.2C377.4 283.9 374.7 281.2 371.3 281.2Z" fill="#2D39BD"/>
<path id="Vector_71" d="M348.5 281.2H346.7V280.1C348.8 278.8 350.3 276.4 350.3 273.7C350.3 269.6 347 266.2 342.8 266.2C338.7 266.2 335.3 269.5 335.3 273.7C335.3 276.7 337 279.2 339.6 280.4V281.1H337.8C334.5 281.1 331.7 283.8 331.7 287.2V312.8C331.7 316.1 334.4 318.9 337.8 318.9H348.5C351.8 318.9 354.6 316.2 354.6 312.8V287.2C354.6 283.9 351.9 281.2 348.5 281.2Z" fill="#2D39BD"/>
<path id="Vector_72" d="M325.7 281.2H323.9V280.1C326 278.8 327.5 276.4 327.5 273.7C327.5 269.6 324.2 266.2 320 266.2C315.9 266.2 312.5 269.5 312.5 273.7C312.5 276.7 314.2 279.2 316.8 280.4V281.1H315C311.7 281.1 308.9 283.8 308.9 287.2V312.8C308.9 316.1 311.6 318.9 315 318.9H325.7C329 318.9 331.8 316.2 331.8 312.8V287.2C331.8 283.9 329.1 281.2 325.7 281.2Z" fill="#2D39BD"/>
<path id="Vector_73" d="M302.9 281.2H301.1V280.1C303.2 278.8 304.7 276.4 304.7 273.7C304.7 269.6 301.4 266.2 297.2 266.2C293.1 266.2 289.7 269.5 289.7 273.7C289.7 276.7 291.4 279.2 294 280.4V281.1H292.2C288.9 281.1 286.1 283.8 286.1 287.2V312.8C286.1 316.1 288.8 318.9 292.2 318.9H302.9C306.2 318.9 309 316.2 309 312.8V287.2C309 283.9 306.3 281.2 302.9 281.2Z" fill="#2D39BD"/>
<path id="Vector_74" d="M280.1 281.2H278.3V280.1C280.4 278.8 281.9 276.4 281.9 273.7C281.9 269.6 278.6 266.2 274.4 266.2C270.3 266.2 266.9 269.5 266.9 273.7C266.9 276.7 268.6 279.2 271.2 280.4V281.1H269.4C266.1 281.1 263.3 283.8 263.3 287.2V312.8C263.3 316.1 266 318.9 269.4 318.9H280.1C283.4 318.9 286.2 316.2 286.2 312.8V287.2C286.2 283.9 283.5 281.2 280.1 281.2Z" fill="#2D39BD"/>
</g>
</g>
</g>
<path id="bottom" d="M550 296.9H0V385H550V296.9Z" fill="#222C70"/>
<g id="top">
<path id="Vector_75" d="M550 124.6H0V195.2H550V124.6Z" fill="#070A1F"/>
<path id="Vector_76" d="M550 50.1H0V126.6H550V50.1Z" fill="#101745"/>
<path id="Vector_77" d="M550 108.2H0V165.8H550V108.2Z" fill="#141B59"/>
<path id="Vector_78" d="M550 0H0V50H550V0Z" fill="#0C1029"/>
</g>
<g id="light strip">
<path id="Vector_79" d="M550 125.6H0V149.9H550V125.6Z" fill="#1D2A85"/>
<g id="lights">
<g id="Group_6" opacity="0.5">
<path id="Vector_80" opacity="0.5" d="M15.2 145.7C18.4585 145.7 21.1 143.058 21.1 139.8C21.1 136.542 18.4585 133.9 15.2 133.9C11.9415 133.9 9.29999 136.542 9.29999 139.8C9.29999 143.058 11.9415 145.7 15.2 145.7Z" fill="black"/>
<path id="Vector_81" opacity="0.8" d="M17.8 141.3C19.2911 141.3 20.5 140.091 20.5 138.6C20.5 137.109 19.2911 135.9 17.8 135.9C16.3088 135.9 15.1 137.109 15.1 138.6C15.1 140.091 16.3088 141.3 17.8 141.3Z" fill="black"/>
<path id="Vector_82" opacity="0.5" d="M35.4 145.7C38.6585 145.7 41.3 143.058 41.3 139.8C41.3 136.542 38.6585 133.9 35.4 133.9C32.1415 133.9 29.5 136.542 29.5 139.8C29.5 143.058 32.1415 145.7 35.4 145.7Z" fill="black"/>
<path id="Vector_83" opacity="0.8" d="M37.9 141.3C39.3912 141.3 40.6 140.091 40.6 138.6C40.6 137.109 39.3912 135.9 37.9 135.9C36.4088 135.9 35.2 137.109 35.2 138.6C35.2 140.091 36.4088 141.3 37.9 141.3Z" fill="black"/>
<path id="Vector_84" opacity="0.5" d="M55.5 145.7C58.7585 145.7 61.4 143.058 61.4 139.8C61.4 136.542 58.7585 133.9 55.5 133.9C52.2415 133.9 49.6 136.542 49.6 139.8C49.6 143.058 52.2415 145.7 55.5 145.7Z" fill="black"/>
<path id="Vector_85" opacity="0.8" d="M58.1 141.3C59.5912 141.3 60.8 140.091 60.8 138.6C60.8 137.109 59.5912 135.9 58.1 135.9C56.6088 135.9 55.4 137.109 55.4 138.6C55.4 140.091 56.6088 141.3 58.1 141.3Z" fill="black"/>
<path id="Vector_86" opacity="0.5" d="M75.6 145.7C78.8585 145.7 81.5 143.058 81.5 139.8C81.5 136.542 78.8585 133.9 75.6 133.9C72.3415 133.9 69.7 136.542 69.7 139.8C69.7 143.058 72.3415 145.7 75.6 145.7Z" fill="black"/>
<path id="Vector_87" opacity="0.8" d="M78.2 141.3C79.6912 141.3 80.9 140.091 80.9 138.6C80.9 137.109 79.6912 135.9 78.2 135.9C76.7088 135.9 75.5 137.109 75.5 138.6C75.5 140.091 76.7088 141.3 78.2 141.3Z" fill="black"/>
<path id="Vector_88" opacity="0.5" d="M95.8 145.7C99.0585 145.7 101.7 143.058 101.7 139.8C101.7 136.542 99.0585 133.9 95.8 133.9C92.5415 133.9 89.9 136.542 89.9 139.8C89.9 143.058 92.5415 145.7 95.8 145.7Z" fill="black"/>
<path id="Vector_89" opacity="0.8" d="M98.3 141.3C99.7911 141.3 101 140.091 101 138.6C101 137.109 99.7911 135.9 98.3 135.9C96.8088 135.9 95.6 137.109 95.6 138.6C95.6 140.091 96.8088 141.3 98.3 141.3Z" fill="black"/>
<path id="Vector_90" opacity="0.5" d="M115.9 145.7C119.158 145.7 121.8 143.058 121.8 139.8C121.8 136.542 119.158 133.9 115.9 133.9C112.642 133.9 110 136.542 110 139.8C110 143.058 112.642 145.7 115.9 145.7Z" fill="black"/>
<path id="Vector_91" opacity="0.8" d="M118.5 141.3C119.991 141.3 121.2 140.091 121.2 138.6C121.2 137.109 119.991 135.9 118.5 135.9C117.009 135.9 115.8 137.109 115.8 138.6C115.8 140.091 117.009 141.3 118.5 141.3Z" fill="black"/>
<path id="Vector_92" opacity="0.5" d="M136 145.7C139.258 145.7 141.9 143.058 141.9 139.8C141.9 136.542 139.258 133.9 136 133.9C132.741 133.9 130.1 136.542 130.1 139.8C130.1 143.058 132.741 145.7 136 145.7Z" fill="black"/>
<path id="Vector_93" opacity="0.8" d="M138.6 141.3C140.091 141.3 141.3 140.091 141.3 138.6C141.3 137.109 140.091 135.9 138.6 135.9C137.109 135.9 135.9 137.109 135.9 138.6C135.9 140.091 137.109 141.3 138.6 141.3Z" fill="black"/>
<path id="Vector_94" opacity="0.5" d="M156.2 145.7C159.458 145.7 162.1 143.058 162.1 139.8C162.1 136.542 159.458 133.9 156.2 133.9C152.942 133.9 150.3 136.542 150.3 139.8C150.3 143.058 152.942 145.7 156.2 145.7Z" fill="black"/>
<path id="Vector_95" opacity="0.8" d="M158.7 141.3C160.191 141.3 161.4 140.091 161.4 138.6C161.4 137.109 160.191 135.9 158.7 135.9C157.209 135.9 156 137.109 156 138.6C156 140.091 157.209 141.3 158.7 141.3Z" fill="black"/>
<path id="Vector_96" opacity="0.5" d="M176.3 145.7C179.558 145.7 182.2 143.058 182.2 139.8C182.2 136.542 179.558 133.9 176.3 133.9C173.041 133.9 170.4 136.542 170.4 139.8C170.4 143.058 173.041 145.7 176.3 145.7Z" fill="black"/>
<path id="Vector_97" opacity="0.8" d="M178.9 141.3C180.391 141.3 181.6 140.091 181.6 138.6C181.6 137.109 180.391 135.9 178.9 135.9C177.409 135.9 176.2 137.109 176.2 138.6C176.2 140.091 177.409 141.3 178.9 141.3Z" fill="black"/>
<path id="Vector_98" opacity="0.5" d="M196.5 145.7C199.758 145.7 202.4 143.058 202.4 139.8C202.4 136.542 199.758 133.9 196.5 133.9C193.241 133.9 190.6 136.542 190.6 139.8C190.6 143.058 193.241 145.7 196.5 145.7Z" fill="black"/>
<path id="Vector_99" opacity="0.8" d="M199 141.3C200.491 141.3 201.7 140.091 201.7 138.6C201.7 137.109 200.491 135.9 199 135.9C197.509 135.9 196.3 137.109 196.3 138.6C196.3 140.091 197.509 141.3 199 141.3Z" fill="black"/>
<path id="Vector_100" opacity="0.5" d="M216.6 145.7C219.858 145.7 222.5 143.058 222.5 139.8C222.5 136.542 219.858 133.9 216.6 133.9C213.342 133.9 210.7 136.542 210.7 139.8C210.7 143.058 213.342 145.7 216.6 145.7Z" fill="black"/>
<path id="Vector_101" opacity="0.8" d="M219.2 141.3C220.691 141.3 221.9 140.091 221.9 138.6C221.9 137.109 220.691 135.9 219.2 135.9C217.709 135.9 216.5 137.109 216.5 138.6C216.5 140.091 217.709 141.3 219.2 141.3Z" fill="black"/>
<path id="Vector_102" opacity="0.5" d="M236.7 145.7C239.958 145.7 242.6 143.058 242.6 139.8C242.6 136.542 239.958 133.9 236.7 133.9C233.442 133.9 230.8 136.542 230.8 139.8C230.8 143.058 233.442 145.7 236.7 145.7Z" fill="black"/>
<path id="Vector_103" opacity="0.8" d="M239.3 141.3C240.791 141.3 242 140.091 242 138.6C242 137.109 240.791 135.9 239.3 135.9C237.809 135.9 236.6 137.109 236.6 138.6C236.6 140.091 237.809 141.3 239.3 141.3Z" fill="black"/>
<path id="Vector_104" opacity="0.5" d="M256.9 145.7C260.158 145.7 262.8 143.058 262.8 139.8C262.8 136.542 260.158 133.9 256.9 133.9C253.641 133.9 251 136.542 251 139.8C251 143.058 253.641 145.7 256.9 145.7Z" fill="black"/>
<path id="Vector_105" opacity="0.8" d="M259.4 141.3C260.891 141.3 262.1 140.091 262.1 138.6C262.1 137.109 260.891 135.9 259.4 135.9C257.909 135.9 256.7 137.109 256.7 138.6C256.7 140.091 257.909 141.3 259.4 141.3Z" fill="black"/>
<path id="Vector_106" opacity="0.5" d="M277 145.7C280.258 145.7 282.9 143.058 282.9 139.8C282.9 136.542 280.258 133.9 277 133.9C273.742 133.9 271.1 136.542 271.1 139.8C271.1 143.058 273.742 145.7 277 145.7Z" fill="black"/>
<path id="Vector_107" opacity="0.8" d="M279.6 141.3C281.091 141.3 282.3 140.091 282.3 138.6C282.3 137.109 281.091 135.9 279.6 135.9C278.109 135.9 276.9 137.109 276.9 138.6C276.9 140.091 278.109 141.3 279.6 141.3Z" fill="black"/>
<path id="Vector_108" opacity="0.5" d="M297.1 145.7C300.358 145.7 303 143.058 303 139.8C303 136.542 300.358 133.9 297.1 133.9C293.842 133.9 291.2 136.542 291.2 139.8C291.2 143.058 293.842 145.7 297.1 145.7Z" fill="black"/>
<path id="Vector_109" opacity="0.8" d="M299.7 141.3C301.191 141.3 302.4 140.091 302.4 138.6C302.4 137.109 301.191 135.9 299.7 135.9C298.209 135.9 297 137.109 297 138.6C297 140.091 298.209 141.3 299.7 141.3Z" fill="black"/>
<path id="Vector_110" opacity="0.5" d="M317.3 145.7C320.558 145.7 323.2 143.058 323.2 139.8C323.2 136.542 320.558 133.9 317.3 133.9C314.042 133.9 311.4 136.542 311.4 139.8C311.4 143.058 314.042 145.7 317.3 145.7Z" fill="black"/>
<path id="Vector_111" opacity="0.8" d="M319.8 141.3C321.291 141.3 322.5 140.091 322.5 138.6C322.5 137.109 321.291 135.9 319.8 135.9C318.309 135.9 317.1 137.109 317.1 138.6C317.1 140.091 318.309 141.3 319.8 141.3Z" fill="black"/>
<path id="Vector_112" opacity="0.5" d="M337.4 145.7C340.658 145.7 343.3 143.058 343.3 139.8C343.3 136.542 340.658 133.9 337.4 133.9C334.142 133.9 331.5 136.542 331.5 139.8C331.5 143.058 334.142 145.7 337.4 145.7Z" fill="black"/>
<path id="Vector_113" opacity="0.8" d="M340 141.3C341.491 141.3 342.7 140.091 342.7 138.6C342.7 137.109 341.491 135.9 340 135.9C338.509 135.9 337.3 137.109 337.3 138.6C337.3 140.091 338.509 141.3 340 141.3Z" fill="black"/>
<path id="Vector_114" opacity="0.5" d="M357.5 145.7C360.758 145.7 363.4 143.058 363.4 139.8C363.4 136.542 360.758 133.9 357.5 133.9C354.242 133.9 351.6 136.542 351.6 139.8C351.6 143.058 354.242 145.7 357.5 145.7Z" fill="black"/>
<path id="Vector_115" opacity="0.8" d="M360.1 141.3C361.591 141.3 362.8 140.091 362.8 138.6C362.8 137.109 361.591 135.9 360.1 135.9C358.609 135.9 357.4 137.109 357.4 138.6C357.4 140.091 358.609 141.3 360.1 141.3Z" fill="black"/>
<path id="Vector_116" opacity="0.5" d="M377.7 145.7C380.958 145.7 383.6 143.058 383.6 139.8C383.6 136.542 380.958 133.9 377.7 133.9C374.442 133.9 371.8 136.542 371.8 139.8C371.8 143.058 374.442 145.7 377.7 145.7Z" fill="black"/>
<path id="Vector_117" opacity="0.8" d="M380.2 141.3C381.691 141.3 382.9 140.091 382.9 138.6C382.9 137.109 381.691 135.9 380.2 135.9C378.709 135.9 377.5 137.109 377.5 138.6C377.5 140.091 378.709 141.3 380.2 141.3Z" fill="black"/>
<path id="Vector_118" opacity="0.5" d="M397.8 145.7C401.058 145.7 403.7 143.058 403.7 139.8C403.7 136.542 401.058 133.9 397.8 133.9C394.542 133.9 391.9 136.542 391.9 139.8C391.9 143.058 394.542 145.7 397.8 145.7Z" fill="black"/>
<path id="Vector_119" opacity="0.8" d="M400.4 141.3C401.891 141.3 403.1 140.091 403.1 138.6C403.1 137.109 401.891 135.9 400.4 135.9C398.909 135.9 397.7 137.109 397.7 138.6C397.7 140.091 398.909 141.3 400.4 141.3Z" fill="black"/>
<path id="Vector_120" opacity="0.5" d="M418 145.7C421.258 145.7 423.9 143.058 423.9 139.8C423.9 136.542 421.258 133.9 418 133.9C414.742 133.9 412.1 136.542 412.1 139.8C412.1 143.058 414.742 145.7 418 145.7Z" fill="black"/>
<path id="Vector_121" opacity="0.8" d="M420.5 141.3C421.991 141.3 423.2 140.091 423.2 138.6C423.2 137.109 421.991 135.9 420.5 135.9C419.009 135.9 417.8 137.109 417.8 138.6C417.8 140.091 419.009 141.3 420.5 141.3Z" fill="black"/>
<path id="Vector_122" opacity="0.5" d="M438.1 145.7C441.358 145.7 444 143.058 444 139.8C444 136.542 441.358 133.9 438.1 133.9C434.842 133.9 432.2 136.542 432.2 139.8C432.2 143.058 434.842 145.7 438.1 145.7Z" fill="black"/>
<path id="Vector_123" opacity="0.8" d="M440.7 141.3C442.191 141.3 443.4 140.091 443.4 138.6C443.4 137.109 442.191 135.9 440.7 135.9C439.209 135.9 438 137.109 438 138.6C438 140.091 439.209 141.3 440.7 141.3Z" fill="black"/>
<path id="Vector_124" opacity="0.5" d="M458.2 145.7C461.458 145.7 464.1 143.058 464.1 139.8C464.1 136.542 461.458 133.9 458.2 133.9C454.942 133.9 452.3 136.542 452.3 139.8C452.3 143.058 454.942 145.7 458.2 145.7Z" fill="black"/>
<path id="Vector_125" opacity="0.8" d="M460.8 141.3C462.291 141.3 463.5 140.091 463.5 138.6C463.5 137.109 462.291 135.9 460.8 135.9C459.309 135.9 458.1 137.109 458.1 138.6C458.1 140.091 459.309 141.3 460.8 141.3Z" fill="black"/>
<path id="Vector_126" opacity="0.5" d="M478.4 145.7C481.658 145.7 484.3 143.058 484.3 139.8C484.3 136.542 481.658 133.9 478.4 133.9C475.142 133.9 472.5 136.542 472.5 139.8C472.5 143.058 475.142 145.7 478.4 145.7Z" fill="black"/>
<path id="Vector_127" opacity="0.8" d="M480.9 141.3C482.391 141.3 483.6 140.091 483.6 138.6C483.6 137.109 482.391 135.9 480.9 135.9C479.409 135.9 478.2 137.109 478.2 138.6C478.2 140.091 479.409 141.3 480.9 141.3Z" fill="black"/>
<path id="Vector_128" opacity="0.5" d="M498.5 145.7C501.758 145.7 504.4 143.058 504.4 139.8C504.4 136.542 501.758 133.9 498.5 133.9C495.242 133.9 492.6 136.542 492.6 139.8C492.6 143.058 495.242 145.7 498.5 145.7Z" fill="black"/>
<path id="Vector_129" opacity="0.8" d="M501.1 141.3C502.591 141.3 503.8 140.091 503.8 138.6C503.8 137.109 502.591 135.9 501.1 135.9C499.609 135.9 498.4 137.109 498.4 138.6C498.4 140.091 499.609 141.3 501.1 141.3Z" fill="black"/>
<path id="Vector_130" opacity="0.5" d="M518.6 145.7C521.858 145.7 524.5 143.058 524.5 139.8C524.5 136.542 521.858 133.9 518.6 133.9C515.341 133.9 512.7 136.542 512.7 139.8C512.7 143.058 515.341 145.7 518.6 145.7Z" fill="black"/>
<path id="Vector_131" opacity="0.8" d="M521.2 141.3C522.691 141.3 523.9 140.091 523.9 138.6C523.9 137.109 522.691 135.9 521.2 135.9C519.709 135.9 518.5 137.109 518.5 138.6C518.5 140.091 519.709 141.3 521.2 141.3Z" fill="black"/>
<path id="Vector_132" opacity="0.5" d="M538.8 145.7C542.058 145.7 544.7 143.058 544.7 139.8C544.7 136.542 542.058 133.9 538.8 133.9C535.542 133.9 532.9 136.542 532.9 139.8C532.9 143.058 535.542 145.7 538.8 145.7Z" fill="black"/>
<path id="Vector_133" opacity="0.8" d="M541.3 141.3C542.791 141.3 544 140.091 544 138.6C544 137.109 542.791 135.9 541.3 135.9C539.809 135.9 538.6 137.109 538.6 138.6C538.6 140.091 539.809 141.3 541.3 141.3Z" fill="black"/>
</g>
<g id="Group_7">
<g id="Group_8">
<g id="Group_9">
<path id="Vector_134" d="M13.2 143.7C16.4585 143.7 19.1 141.058 19.1 137.8C19.1 134.542 16.4585 131.9 13.2 131.9C9.94151 131.9 7.29999 134.542 7.29999 137.8C7.29999 141.058 9.94151 143.7 13.2 143.7Z" fill="#E6A421"/>
<path id="Vector_135" opacity="0.8" d="M15.8 139.3C17.2911 139.3 18.5 138.091 18.5 136.6C18.5 135.109 17.2911 133.9 15.8 133.9C14.3088 133.9 13.1 135.109 13.1 136.6C13.1 138.091 14.3088 139.3 15.8 139.3Z" fill="white"/>
</g>
<g id="Group_10">
<path id="Vector_136" d="M33.4 143.7C36.6585 143.7 39.3 141.058 39.3 137.8C39.3 134.542 36.6585 131.9 33.4 131.9C30.1415 131.9 27.5 134.542 27.5 137.8C27.5 141.058 30.1415 143.7 33.4 143.7Z" fill="#E6A421"/>
<path id="Vector_137" opacity="0.8" d="M35.9 139.3C37.3912 139.3 38.6 138.091 38.6 136.6C38.6 135.109 37.3912 133.9 35.9 133.9C34.4088 133.9 33.2 135.109 33.2 136.6C33.2 138.091 34.4088 139.3 35.9 139.3Z" fill="white"/>
</g>
<g id="Group_11">
<path id="Vector_138" d="M53.5 143.7C56.7585 143.7 59.4 141.058 59.4 137.8C59.4 134.542 56.7585 131.9 53.5 131.9C50.2415 131.9 47.6 134.542 47.6 137.8C47.6 141.058 50.2415 143.7 53.5 143.7Z" fill="#E6A421"/>
<path id="Vector_139" opacity="0.8" d="M56.1 139.3C57.5911 139.3 58.8 138.091 58.8 136.6C58.8 135.109 57.5911 133.9 56.1 133.9C54.6088 133.9 53.4 135.109 53.4 136.6C53.4 138.091 54.6088 139.3 56.1 139.3Z" fill="white"/>
</g>
<g id="Group_12">
<path id="Vector_140" d="M73.6 143.7C76.8585 143.7 79.5 141.058 79.5 137.8C79.5 134.542 76.8585 131.9 73.6 131.9C70.3415 131.9 67.7 134.542 67.7 137.8C67.7 141.058 70.3415 143.7 73.6 143.7Z" fill="#E6A421"/>
<path id="Vector_141" opacity="0.8" d="M76.2 139.3C77.6912 139.3 78.9 138.091 78.9 136.6C78.9 135.109 77.6912 133.9 76.2 133.9C74.7088 133.9 73.5 135.109 73.5 136.6C73.5 138.091 74.7088 139.3 76.2 139.3Z" fill="white"/>
</g>
<g id="Group_13">
<path id="Vector_142" d="M93.8 143.7C97.0585 143.7 99.7 141.058 99.7 137.8C99.7 134.542 97.0585 131.9 93.8 131.9C90.5415 131.9 87.9 134.542 87.9 137.8C87.9 141.058 90.5415 143.7 93.8 143.7Z" fill="#E6A421"/>
<path id="Vector_143" opacity="0.8" d="M96.3 139.3C97.7911 139.3 99 138.091 99 136.6C99 135.109 97.7911 133.9 96.3 133.9C94.8088 133.9 93.6 135.109 93.6 136.6C93.6 138.091 94.8088 139.3 96.3 139.3Z" fill="white"/>
</g>
<g id="Group_14">
<path id="Vector_144" d="M113.9 143.7C117.158 143.7 119.8 141.058 119.8 137.8C119.8 134.542 117.158 131.9 113.9 131.9C110.642 131.9 108 134.542 108 137.8C108 141.058 110.642 143.7 113.9 143.7Z" fill="#E6A421"/>
<path id="Vector_145" opacity="0.8" d="M116.5 139.3C117.991 139.3 119.2 138.091 119.2 136.6C119.2 135.109 117.991 133.9 116.5 133.9C115.009 133.9 113.8 135.109 113.8 136.6C113.8 138.091 115.009 139.3 116.5 139.3Z" fill="white"/>
</g>
<g id="Group_15">
<path id="Vector_146" d="M134 143.7C137.258 143.7 139.9 141.058 139.9 137.8C139.9 134.542 137.258 131.9 134 131.9C130.741 131.9 128.1 134.542 128.1 137.8C128.1 141.058 130.741 143.7 134 143.7Z" fill="#E6A421"/>
<path id="Vector_147" opacity="0.8" d="M136.6 139.3C138.091 139.3 139.3 138.091 139.3 136.6C139.3 135.109 138.091 133.9 136.6 133.9C135.109 133.9 133.9 135.109 133.9 136.6C133.9 138.091 135.109 139.3 136.6 139.3Z" fill="white"/>
</g>
<g id="Group_16">
<path id="Vector_148" d="M154.2 143.7C157.458 143.7 160.1 141.058 160.1 137.8C160.1 134.542 157.458 131.9 154.2 131.9C150.942 131.9 148.3 134.542 148.3 137.8C148.3 141.058 150.942 143.7 154.2 143.7Z" fill="#E6A421"/>
<path id="Vector_149" opacity="0.8" d="M156.7 139.3C158.191 139.3 159.4 138.091 159.4 136.6C159.4 135.109 158.191 133.9 156.7 133.9C155.209 133.9 154 135.109 154 136.6C154 138.091 155.209 139.3 156.7 139.3Z" fill="white"/>
</g>
<g id="Group_17">
<path id="Vector_150" d="M174.3 143.7C177.558 143.7 180.2 141.058 180.2 137.8C180.2 134.542 177.558 131.9 174.3 131.9C171.041 131.9 168.4 134.542 168.4 137.8C168.4 141.058 171.041 143.7 174.3 143.7Z" fill="#E6A421"/>
<path id="Vector_151" opacity="0.8" d="M176.9 139.3C178.391 139.3 179.6 138.091 179.6 136.6C179.6 135.109 178.391 133.9 176.9 133.9C175.409 133.9 174.2 135.109 174.2 136.6C174.2 138.091 175.409 139.3 176.9 139.3Z" fill="white"/>
</g>
<g id="Group_18">
<path id="Vector_152" d="M194.5 143.7C197.758 143.7 200.4 141.058 200.4 137.8C200.4 134.542 197.758 131.9 194.5 131.9C191.241 131.9 188.6 134.542 188.6 137.8C188.6 141.058 191.241 143.7 194.5 143.7Z" fill="#E6A421"/>
<path id="Vector_153" opacity="0.8" d="M197 139.3C198.491 139.3 199.7 138.091 199.7 136.6C199.7 135.109 198.491 133.9 197 133.9C195.509 133.9 194.3 135.109 194.3 136.6C194.3 138.091 195.509 139.3 197 139.3Z" fill="white"/>
</g>
<g id="Group_19">
<path id="Vector_154" d="M214.6 143.7C217.858 143.7 220.5 141.058 220.5 137.8C220.5 134.542 217.858 131.9 214.6 131.9C211.342 131.9 208.7 134.542 208.7 137.8C208.7 141.058 211.342 143.7 214.6 143.7Z" fill="#E6A421"/>
<path id="Vector_155" opacity="0.8" d="M217.2 139.3C218.691 139.3 219.9 138.091 219.9 136.6C219.9 135.109 218.691 133.9 217.2 133.9C215.709 133.9 214.5 135.109 214.5 136.6C214.5 138.091 215.709 139.3 217.2 139.3Z" fill="white"/>
</g>
<g id="Group_20">
<path id="Vector_156" d="M234.7 143.7C237.958 143.7 240.6 141.058 240.6 137.8C240.6 134.542 237.958 131.9 234.7 131.9C231.442 131.9 228.8 134.542 228.8 137.8C228.8 141.058 231.442 143.7 234.7 143.7Z" fill="#E6A421"/>
<path id="Vector_157" opacity="0.8" d="M237.3 139.3C238.791 139.3 240 138.091 240 136.6C240 135.109 238.791 133.9 237.3 133.9C235.809 133.9 234.6 135.109 234.6 136.6C234.6 138.091 235.809 139.3 237.3 139.3Z" fill="white"/>
</g>
<g id="Group_21">
<path id="Vector_158" d="M254.9 143.7C258.158 143.7 260.8 141.058 260.8 137.8C260.8 134.542 258.158 131.9 254.9 131.9C251.641 131.9 249 134.542 249 137.8C249 141.058 251.641 143.7 254.9 143.7Z" fill="#E6A421"/>
<path id="Vector_159" opacity="0.8" d="M257.4 139.3C258.891 139.3 260.1 138.091 260.1 136.6C260.1 135.109 258.891 133.9 257.4 133.9C255.909 133.9 254.7 135.109 254.7 136.6C254.7 138.091 255.909 139.3 257.4 139.3Z" fill="white"/>
</g>
<g id="Group_22">
<path id="Vector_160" d="M275 143.7C278.258 143.7 280.9 141.058 280.9 137.8C280.9 134.542 278.258 131.9 275 131.9C271.742 131.9 269.1 134.542 269.1 137.8C269.1 141.058 271.742 143.7 275 143.7Z" fill="#E6A421"/>
<path id="Vector_161" opacity="0.8" d="M277.6 139.3C279.091 139.3 280.3 138.091 280.3 136.6C280.3 135.109 279.091 133.9 277.6 133.9C276.109 133.9 274.9 135.109 274.9 136.6C274.9 138.091 276.109 139.3 277.6 139.3Z" fill="white"/>
</g>
<g id="Group_23">
<path id="Vector_162" d="M295.1 143.7C298.358 143.7 301 141.058 301 137.8C301 134.542 298.358 131.9 295.1 131.9C291.842 131.9 289.2 134.542 289.2 137.8C289.2 141.058 291.842 143.7 295.1 143.7Z" fill="#E6A421"/>
<path id="Vector_163" opacity="0.8" d="M297.7 139.3C299.191 139.3 300.4 138.091 300.4 136.6C300.4 135.109 299.191 133.9 297.7 133.9C296.209 133.9 295 135.109 295 136.6C295 138.091 296.209 139.3 297.7 139.3Z" fill="white"/>
</g>
<g id="Group_24">
<path id="Vector_164" d="M315.3 143.7C318.558 143.7 321.2 141.058 321.2 137.8C321.2 134.542 318.558 131.9 315.3 131.9C312.042 131.9 309.4 134.542 309.4 137.8C309.4 141.058 312.042 143.7 315.3 143.7Z" fill="#E6A421"/>
<path id="Vector_165" opacity="0.8" d="M317.8 139.3C319.291 139.3 320.5 138.091 320.5 136.6C320.5 135.109 319.291 133.9 317.8 133.9C316.309 133.9 315.1 135.109 315.1 136.6C315.1 138.091 316.309 139.3 317.8 139.3Z" fill="white"/>
</g>
<g id="Group_25">
<path id="Vector_166" d="M335.4 143.7C338.658 143.7 341.3 141.058 341.3 137.8C341.3 134.542 338.658 131.9 335.4 131.9C332.142 131.9 329.5 134.542 329.5 137.8C329.5 141.058 332.142 143.7 335.4 143.7Z" fill="#E6A421"/>
<path id="Vector_167" opacity="0.8" d="M338 139.3C339.491 139.3 340.7 138.091 340.7 136.6C340.7 135.109 339.491 133.9 338 133.9C336.509 133.9 335.3 135.109 335.3 136.6C335.3 138.091 336.509 139.3 338 139.3Z" fill="white"/>
</g>
<g id="Group_26">
<path id="Vector_168" d="M355.5 143.7C358.758 143.7 361.4 141.058 361.4 137.8C361.4 134.542 358.758 131.9 355.5 131.9C352.242 131.9 349.6 134.542 349.6 137.8C349.6 141.058 352.242 143.7 355.5 143.7Z" fill="#E6A421"/>
<path id="Vector_169" opacity="0.8" d="M358.1 139.3C359.591 139.3 360.8 138.091 360.8 136.6C360.8 135.109 359.591 133.9 358.1 133.9C356.609 133.9 355.4 135.109 355.4 136.6C355.4 138.091 356.609 139.3 358.1 139.3Z" fill="white"/>
</g>
<g id="Group_27">
<path id="Vector_170" d="M375.7 143.7C378.958 143.7 381.6 141.058 381.6 137.8C381.6 134.542 378.958 131.9 375.7 131.9C372.442 131.9 369.8 134.542 369.8 137.8C369.8 141.058 372.442 143.7 375.7 143.7Z" fill="#E6A421"/>
<path id="Vector_171" opacity="0.8" d="M378.2 139.3C379.691 139.3 380.9 138.091 380.9 136.6C380.9 135.109 379.691 133.9 378.2 133.9C376.709 133.9 375.5 135.109 375.5 136.6C375.5 138.091 376.709 139.3 378.2 139.3Z" fill="white"/>
</g>
<g id="Group_28">
<path id="Vector_172" d="M395.8 143.7C399.058 143.7 401.7 141.058 401.7 137.8C401.7 134.542 399.058 131.9 395.8 131.9C392.542 131.9 389.9 134.542 389.9 137.8C389.9 141.058 392.542 143.7 395.8 143.7Z" fill="#E6A421"/>
<path id="Vector_173" opacity="0.8" d="M398.4 139.3C399.891 139.3 401.1 138.091 401.1 136.6C401.1 135.109 399.891 133.9 398.4 133.9C396.909 133.9 395.7 135.109 395.7 136.6C395.7 138.091 396.909 139.3 398.4 139.3Z" fill="white"/>
</g>
<g id="Group_29">
<path id="Vector_174" d="M416 143.7C419.258 143.7 421.9 141.058 421.9 137.8C421.9 134.542 419.258 131.9 416 131.9C412.742 131.9 410.1 134.542 410.1 137.8C410.1 141.058 412.742 143.7 416 143.7Z" fill="#E6A421"/>
<path id="Vector_175" opacity="0.8" d="M418.5 139.3C419.991 139.3 421.2 138.091 421.2 136.6C421.2 135.109 419.991 133.9 418.5 133.9C417.009 133.9 415.8 135.109 415.8 136.6C415.8 138.091 417.009 139.3 418.5 139.3Z" fill="white"/>
</g>
<g id="Group_30">
<path id="Vector_176" d="M436.1 143.7C439.358 143.7 442 141.058 442 137.8C442 134.542 439.358 131.9 436.1 131.9C432.842 131.9 430.2 134.542 430.2 137.8C430.2 141.058 432.842 143.7 436.1 143.7Z" fill="#E6A421"/>
<path id="Vector_177" opacity="0.8" d="M438.7 139.3C440.191 139.3 441.4 138.091 441.4 136.6C441.4 135.109 440.191 133.9 438.7 133.9C437.209 133.9 436 135.109 436 136.6C436 138.091 437.209 139.3 438.7 139.3Z" fill="white"/>
</g>
<g id="Group_31">
<path id="Vector_178" d="M456.2 143.7C459.458 143.7 462.1 141.058 462.1 137.8C462.1 134.542 459.458 131.9 456.2 131.9C452.942 131.9 450.3 134.542 450.3 137.8C450.3 141.058 452.942 143.7 456.2 143.7Z" fill="#E6A421"/>
<path id="Vector_179" opacity="0.8" d="M458.8 139.3C460.291 139.3 461.5 138.091 461.5 136.6C461.5 135.109 460.291 133.9 458.8 133.9C457.309 133.9 456.1 135.109 456.1 136.6C456.1 138.091 457.309 139.3 458.8 139.3Z" fill="white"/>
</g>
<g id="Group_32">
<path id="Vector_180" d="M476.4 143.7C479.658 143.7 482.3 141.058 482.3 137.8C482.3 134.542 479.658 131.9 476.4 131.9C473.142 131.9 470.5 134.542 470.5 137.8C470.5 141.058 473.142 143.7 476.4 143.7Z" fill="#E6A421"/>
<path id="Vector_181" opacity="0.8" d="M478.9 139.3C480.391 139.3 481.6 138.091 481.6 136.6C481.6 135.109 480.391 133.9 478.9 133.9C477.409 133.9 476.2 135.109 476.2 136.6C476.2 138.091 477.409 139.3 478.9 139.3Z" fill="white"/>
</g>
<g id="Group_33">
<path id="Vector_182" d="M496.5 143.7C499.758 143.7 502.4 141.058 502.4 137.8C502.4 134.542 499.758 131.9 496.5 131.9C493.242 131.9 490.6 134.542 490.6 137.8C490.6 141.058 493.242 143.7 496.5 143.7Z" fill="#E6A421"/>
<path id="Vector_183" opacity="0.8" d="M499.1 139.3C500.591 139.3 501.8 138.091 501.8 136.6C501.8 135.109 500.591 133.9 499.1 133.9C497.609 133.9 496.4 135.109 496.4 136.6C496.4 138.091 497.609 139.3 499.1 139.3Z" fill="white"/>
</g>
<g id="Group_34">
<path id="Vector_184" d="M516.6 143.7C519.858 143.7 522.5 141.058 522.5 137.8C522.5 134.542 519.858 131.9 516.6 131.9C513.341 131.9 510.7 134.542 510.7 137.8C510.7 141.058 513.341 143.7 516.6 143.7Z" fill="#E6A421"/>
<path id="Vector_185" opacity="0.8" d="M519.2 139.3C520.691 139.3 521.9 138.091 521.9 136.6C521.9 135.109 520.691 133.9 519.2 133.9C517.709 133.9 516.5 135.109 516.5 136.6C516.5 138.091 517.709 139.3 519.2 139.3Z" fill="white"/>
</g>
<g id="Group_35">
<path id="Vector_186" d="M536.8 143.7C540.058 143.7 542.7 141.058 542.7 137.8C542.7 134.542 540.058 131.9 536.8 131.9C533.542 131.9 530.9 134.542 530.9 137.8C530.9 141.058 533.542 143.7 536.8 143.7Z" fill="#E6A421"/>
<path id="Vector_187" opacity="0.8" d="M539.3 139.3C540.791 139.3 542 138.091 542 136.6C542 135.109 540.791 133.9 539.3 133.9C537.809 133.9 536.6 135.109 536.6 136.6C536.6 138.091 537.809 139.3 539.3 139.3Z" fill="white"/>
</g>
</g>
</g>
</g>
<g id="stars">
<path id="Vector_188" d="M462.2 137.3L473.7 136.8L462.2 136.3L468.2 129.9L461.7 135.8L461.3 124.3L460.8 135.8L454.3 129.9L460.3 136.3L448.7 136.8L460.3 137.3L454.3 143.8L460.8 137.8L461.3 149.3L461.7 137.8L468.2 143.8L462.2 137.3Z" fill="url(#paint0_radial)"/>
<path id="Vector_189" d="M279 136.3L290.5 135.8L279 135.3L284.9 128.9L278.5 134.8L278 123.3L277.5 134.8L271.1 128.9L277 135.3L265.5 135.8L277 136.3L271.1 142.8L277.5 136.8L278 148.3L278.5 136.8L284.9 142.8L279 136.3Z" fill="url(#paint1_radial)"/>
<path id="Vector_190" d="M180 137.3L191.5 136.8L180 136.3L185.9 129.9L179.5 135.8L179 124.3L178.5 135.8L172.1 129.9L178 136.3L166.5 136.8L178 137.3L172.1 143.8L178.5 137.8L179 149.3L179.5 137.8L185.9 143.8L180 137.3Z" fill="url(#paint2_radial)"/>
<path id="Vector_191" d="M401 136.3L412.5 135.8L401 135.3L406.9 128.9L400.5 134.8L400 123.3L399.5 134.8L393.1 128.9L399 135.3L387.5 135.8L399 136.3L393.1 142.8L399.5 136.8L400 148.3L400.5 136.8L406.9 142.8L401 136.3Z" fill="url(#paint3_radial)"/>
<path id="Vector_192" d="M58.7 136.3L70.3 135.8L58.7 135.3L64.7 128.9L58.2 134.8L57.8 123.3L57.3 134.8L50.8 128.9L56.8 135.3L45.3 135.8L56.8 136.3L50.8 142.8L57.3 136.8L57.8 148.3L58.2 136.8L64.7 142.8L58.7 136.3Z" fill="url(#paint4_radial)"/>
</g>
</g>
</g>
<g id="ring">
<g id="Group_36">
<path id="Vector_193" d="M431.4 286.2H118.6C117.6 286.2 116.8 287 116.8 288C116.8 289 117.6 289.8 118.6 289.8H431.3C432.3 289.8 433.1 289 433.1 288C433.2 287.1 432.4 286.2 431.4 286.2Z" fill="white"/>
<path id="Vector_194" d="M431.4 256.4H118.6C117.6 256.4 116.8 257.2 116.8 258.2C116.8 259.2 117.6 260 118.6 260H431.3C432.3 260 433.1 259.2 433.1 258.2C433.2 257.2 432.4 256.4 431.4 256.4Z" fill="white"/>
<path id="Vector_195" d="M118.6 230.3H431.3C432.3 230.3 433.1 229.5 433.1 228.5C433.1 227.5 432.3 226.7 431.3 226.7H118.6C117.6 226.7 116.8 227.5 116.8 228.5C116.8 229.4 117.6 230.3 118.6 230.3Z" fill="white"/>
</g>
<path id="Vector_196" opacity="0.3" d="M122.3 286.2V289.8H119.9V286.2H122.3ZM122.3 230.3V226.6H119.9V230.3H122.3ZM119.9 256.4V260H122.3V256.4H119.9Z" fill="#231F20"/>
<path id="Vector_197" opacity="0.3" d="M430.1 286.2V289.8H427.7V286.2H430.1ZM430.1 230.3V226.6H427.7V230.3H430.1ZM427.7 256.4V260H430.1V256.4H427.7Z" fill="#231F20"/>
<g id="Group_37">
<path id="Vector_198" d="M437.4 212.1H441.1C443.1 212.1 444.8 213.7 444.8 215.8V327.9C444.8 329.9 443.2 331.6 441.1 331.6H437.4" fill="#E6E7E8"/>
<path id="Vector_199" d="M437.4 331.6H433.7C431.7 331.6 430 330 430 327.9V215.8C430 213.8 431.6 212.1 433.7 212.1H437.4" fill="#D1D3D4"/>
<path id="Vector_200" d="M112.6 212.1H116.3C118.3 212.1 120 213.7 120 215.8V327.9C120 329.9 118.4 331.6 116.3 331.6H112.6" fill="#E6E7E8"/>
<path id="Vector_201" d="M112.6 331.6H108.9C106.9 331.6 105.2 330 105.2 327.9V215.8C105.2 213.8 106.8 212.1 108.9 212.1H112.6" fill="#D1D3D4"/>
</g>
<path id="Vector_202" d="M417.8 312H132.2L42.6 357V378.9H275H507.4V357L417.8 312Z" fill="white"/>
<path id="Vector_203" d="M15.2 385L135 322.9H415L534.8 385H15.2Z" fill="#FFCB52"/>
<path id="Vector_204" d="M164.5 362C191.838 362 214 359.314 214 356C214 352.686 191.838 350 164.5 350C137.162 350 115 352.686 115 356C115 359.314 137.162 362 164.5 362Z" fill="#FFDD8C"/>
<path id="Vector_205" d="M384.5 362C411.838 362 434 359.314 434 356C434 352.686 411.838 350 384.5 350C357.162 350 335 352.686 335 356C335 359.314 357.162 362 384.5 362Z" fill="#FFDD8C"/>
<g id="Group_38">
<g id="Group_39">
<path id="Vector_206" d="M134.9 293.5L42.4 337.7C41.5 338.1 41.1 339.2 41.5 340.1C41.8 340.8 42.5 341.1 43.1 341.1C43.4 341.1 43.6 341 43.9 340.9L136.4 296.7C137.3 296.3 137.7 295.2 137.3 294.3C136.9 293.5 135.8 293.1 134.9 293.5Z" fill="white"/>
<path id="Vector_207" d="M134.9 263.7L42.4 307.9C41.5 308.3 41.1 309.4 41.5 310.3C41.8 311 42.5 311.3 43.1 311.3C43.4 311.3 43.6 311.2 43.9 311.1L136.4 266.9C137.3 266.5 137.7 265.4 137.3 264.5C136.9 263.7 135.8 263.3 134.9 263.7Z" fill="white"/>
<path id="Vector_208" d="M43.2 281.5C43.5 281.5 43.7 281.4 44 281.3L136.5 237.1C137.4 236.7 137.8 235.6 137.4 234.7C137 233.8 135.9 233.4 135 233.8L42.5 278C41.6 278.4 41.2 279.5 41.6 280.4C41.9 281.2 42.5 281.5 43.2 281.5Z" fill="white"/>
</g>
<g id="Group_40">
<path id="Vector_209" d="M507.6 337.7L415.1 293.5C414.2 293.1 413.1 293.5 412.7 294.4C412.3 295.3 412.7 296.4 413.6 296.8L506 341C506.3 341.1 506.5 341.2 506.8 341.2C507.5 341.2 508.1 340.8 508.4 340.2C508.9 339.2 508.5 338.1 507.6 337.7Z" fill="white"/>
<path id="Vector_210" d="M507.6 307.9L415.1 263.7C414.2 263.3 413.1 263.7 412.7 264.6C412.3 265.5 412.7 266.6 413.6 267L506.1 311.2C506.4 311.3 506.6 311.4 506.9 311.4C507.6 311.4 508.2 311 508.5 310.4C508.9 309.4 508.5 308.3 507.6 307.9Z" fill="white"/>
<path id="Vector_211" d="M413.5 237.2L506 281.4C506.3 281.5 506.5 281.6 506.8 281.6C507.5 281.6 508.1 281.2 508.4 280.6C508.8 279.7 508.4 278.6 507.5 278.2L415 234C414.1 233.6 413 234 412.6 234.9C412.2 235.7 412.6 236.8 413.5 237.2Z" fill="white"/>
</g>
</g>
<g id="Group_41">
<path id="Vector_212" d="M46.2 385H7.29999V288.9C7.29999 280.2 14.4 273.1 23.1 273.1H30.4C39.1 273.1 46.2 280.2 46.2 288.9V385Z" fill="#FE5F4C"/>
<path id="Vector_213" d="M542.7 385H503.8V288.9C503.8 280.2 510.9 273.1 519.6 273.1H526.9C535.6 273.1 542.7 280.2 542.7 288.9V385Z" fill="#FE5F4C"/>
<path id="Vector_214" d="M149.1 326.9H141.8C133.1 326.9 126 319.8 126 311.1V234.4C126 225.7 133.1 218.6 141.8 218.6H149.1C157.8 218.6 164.9 225.7 164.9 234.4V311.1C164.9 319.8 157.8 326.9 149.1 326.9Z" fill="#FE5F4C"/>
<path id="Vector_215" d="M408.2 326.9H400.9C392.2 326.9 385.1 319.8 385.1 311.1V234.4C385.1 225.7 392.2 218.6 400.9 218.6H408.2C416.9 218.6 424 225.7 424 234.4V311.1C424.1 319.8 417 326.9 408.2 326.9Z" fill="#FE5F4C"/>
</g>
</g>
<g id="spotlights">
<g id="light 6">
<path id="Vector_216" d="M475.769 108.496L500.871 120.207L517.994 83.5063L492.893 71.7948L475.769 108.496Z" fill="#212D73"/>
<path id="Vector_217" d="M477.5 104.389L502.9 116.189L518.5 82.6888C519.2 81.0888 518.6 79.1888 517 78.3888L497.4 69.2888C495.8 68.5888 493.9 69.1888 493.1 70.7888L477.5 104.389Z" fill="#0C1029"/>
</g>
<g id="light 5">
<path id="beam" opacity="0.2" d="M335.5 357L433.5 357L397 114.5L370 114.5L335.5 357Z" fill="white"/>
<path id="Vector_218" d="M369.624 118.73L397.324 118.805L397.434 78.3065L369.735 78.2309L369.624 118.73Z" fill="#212D73"/>
<path id="Vector_219" d="M369.468 114.276L397.476 114.306L397.549 77.3522C397.512 75.6062 396.169 74.1344 394.381 74.081L372.771 74.0624C371.025 74.0998 369.554 75.4429 369.5 77.2309L369.468 114.276Z" fill="#0C1029"/>
</g>
<g id="light 4">
<path id="beam_2" opacity="0.2" d="M418.689 357.089H335.289L269.889 119.489L293.989 108.289L418.689 357.089Z" fill="white"/>
<path id="Vector_220" d="M276.817 71.7512L251.716 83.4627L268.839 120.164L293.941 108.452L276.817 71.7512Z" fill="#212D73"/>
<path id="Vector_221" d="M292.289 104.389L266.889 116.189L251.289 82.6888C250.589 81.0888 251.189 79.1888 252.789 78.3888L272.389 69.2888C273.989 68.5888 275.889 69.1888 276.689 70.7888L292.289 104.389Z" fill="#0C1029"/>
</g>
<g id="light 3">
<path id="beam_3" opacity="0.2" d="M132 355.881H213.696L281 120L256.236 108.881L132 355.881Z" fill="white"/>
<path id="Vector_222" d="M255.695 107.48L280.796 119.192L297.92 82.4909L272.818 70.7794L255.695 107.48Z" fill="#212D73"/>
<path id="Vector_223" d="M257.5 103.389L282.9 115.189L298.5 81.6888C299.2 80.0888 298.6 78.1888 297 77.3888L277.4 68.2888C275.8 67.5888 273.9 68.1888 273.1 69.7888L257.5 103.389Z" fill="#0C1029"/>
</g>
<g id="light 2">
<path id="beam_4" opacity="0.2" d="M115.5 356L213.5 356L177 113.5L150 113.5L115.5 356Z" fill="white"/>
<path id="Vector_224" d="M149.624 117.73L177.324 117.805L177.434 77.3065L149.735 77.2309L149.624 117.73Z" fill="#212D73"/>
<path id="Vector_225" d="M149.468 113.276L177.476 113.306L177.549 76.3522C177.512 74.6062 176.169 73.1344 174.381 73.081L152.771 73.0624C151.025 73.0998 149.554 74.4429 149.5 76.2309L149.468 113.276Z" fill="#0C1029"/>
</g>
<g id="light 1">
<path id="beam_5" opacity="0.2" d="M197.5 356H115.5L49.8888 119.489L73.9888 108.289L197.5 356Z" fill="white"/>
<path id="Vector_226" d="M56.9122 71.7358L31.8105 83.4473L48.9339 120.148L74.0356 108.437L56.9122 71.7358Z" fill="#212D73"/>
<path id="Vector_227" d="M72.2888 104.389L46.8888 116.189L31.2888 82.6888C30.5888 81.0888 31.1888 79.1888 32.7888 78.3888L52.3888 69.2888C53.9888 68.5888 55.8888 69.1888 56.6888 70.7888L72.2888 104.389Z" fill="#0C1029"/>
</g>
<g id="light frame">
<path id="beam_6" opacity="0.2" d="M351 357.089H434.4L499.9 119.489L475.8 108.289L351 357.089Z" fill="white"/>
<path id="Vector_228" d="M45.6 49.4H41.3V72.7H45.6V49.4Z" fill="#0C1029"/>
<path id="Vector_229" d="M267.6 49.4H263.3V72.7H267.6V49.4Z" fill="#0C1029"/>
<path id="Vector_230" d="M506.614 72.6456L510.914 72.6456L510.914 49.3456L506.614 49.3456L506.614 72.6456Z" fill="#0C1029"/>
<path id="Vector_231" d="M163 73.3L167.3 73.3L167.3 50L163 50L163 73.3Z" fill="#0C1029"/>
<path id="Vector_232" d="M384 69.3L388.3 69.3L388.3 46L384 46L384 69.3Z" fill="#0C1029"/>
<path id="Vector_233" d="M283.593 72.6456L287.893 72.6456L287.893 49.3456L283.593 49.3456L283.593 72.6456Z" fill="#0C1029"/>
<path id="Vector_234" d="M550 69.4H0V74.3H550V69.4Z" fill="#0C1029"/>
</g>
</g>
</g>
</g>
<defs>
<radialGradient id="paint0_radial" cx="0" cy="0" r="1" gradientUnits="userSpaceOnUse" gradientTransform="translate(461.245 136.826) scale(12.5001)">
<stop stop-color="white"/>
<stop offset="1" stop-color="white"/>
</radialGradient>
<radialGradient id="paint1_radial" cx="0" cy="0" r="1" gradientUnits="userSpaceOnUse" gradientTransform="translate(277.997 135.826) scale(12.5001)">
<stop stop-color="white"/>
<stop offset="1" stop-color="white"/>
</radialGradient>
<radialGradient id="paint2_radial" cx="0" cy="0" r="1" gradientUnits="userSpaceOnUse" gradientTransform="translate(178.997 136.826) scale(12.5001)">
<stop stop-color="white"/>
<stop offset="1" stop-color="white"/>
</radialGradient>
<radialGradient id="paint3_radial" cx="0" cy="0" r="1" gradientUnits="userSpaceOnUse" gradientTransform="translate(399.997 135.826) scale(12.5001)">
<stop stop-color="white"/>
<stop offset="1" stop-color="white"/>
</radialGradient>
<radialGradient id="paint4_radial" cx="0" cy="0" r="1" gradientUnits="userSpaceOnUse" gradientTransform="translate(57.749 135.826) scale(12.5001)">
<stop stop-color="white"/>
<stop offset="1" stop-color="white"/>
</radialGradient>
<clipPath id="clip0">
<rect width="550" height="385" fill="white"/>
</clipPath>
</defs>
</svg>
